<svg xmlns="http://www.w3.org/2000/svg" xmlns:xlink="http://www.w3.org/1999/xlink" width="500" zoomAndPan="magnify" viewBox="0 0 375 374.999991" height="500" preserveAspectRatio="xMidYMid meet" version="1.0"><defs><g/></defs><rect x="-37.5" width="450" fill="#ffffff" y="-37.499999" height="449.999989" fill-opacity="1"/><rect x="-37.5" width="450" fill="#ffffff" y="-37.499999" height="449.999989" fill-opacity="1"/><g fill="#ffc1b2" fill-opacity="0.302"><g transform="translate(35.915488, 199.394855)"><g><path d="M 34.476562 -0.992188 L 34.398438 -1.03125 C 33.761719 -1.707031 33.484375 -2.5 33.484375 -3.453125 L 33.484375 -35.984375 C 33.484375 -36.898438 33.761719 -37.691406 34.398438 -38.40625 L 34.476562 -38.445312 C 34.597656 -38.644531 34.597656 -38.84375 34.476562 -39.078125 C 34.359375 -39.316406 34.199219 -39.4375 33.960938 -39.4375 L 25.152344 -39.4375 C 24.914062 -39.4375 24.71875 -39.316406 24.597656 -39.078125 C 24.480469 -38.84375 24.480469 -38.644531 24.636719 -38.445312 L 24.679688 -38.445312 C 25.3125 -37.730469 25.628906 -36.898438 25.628906 -36.023438 L 25.628906 -24.957031 C 25.628906 -24.558594 25.472656 -24.242188 25.234375 -24.003906 C 24.957031 -23.765625 24.636719 -23.644531 24.28125 -23.644531 L 15.078125 -23.644531 C 14.679688 -23.644531 14.363281 -23.765625 14.125 -24.003906 C 13.847656 -24.242188 13.726562 -24.558594 13.726562 -24.957031 L 13.726562 -36.066406 C 13.726562 -36.9375 14.046875 -37.730469 14.679688 -38.445312 C 14.796875 -38.644531 14.796875 -38.84375 14.71875 -39.078125 C 14.601562 -39.316406 14.402344 -39.4375 14.164062 -39.4375 L 5.394531 -39.4375 C 5.117188 -39.4375 4.917969 -39.316406 4.839844 -39.078125 C 4.722656 -38.84375 4.722656 -38.644531 4.878906 -38.445312 L 4.960938 -38.367188 C 5.554688 -37.691406 5.871094 -36.898438 5.871094 -35.984375 L 5.871094 -3.492188 C 5.871094 -2.539062 5.554688 -1.707031 4.960938 -1.070312 L 4.878906 -0.992188 C 4.722656 -0.753906 4.722656 -0.554688 4.839844 -0.316406 C 4.917969 -0.078125 5.117188 0 5.394531 0 L 14.164062 0 C 14.402344 0 14.601562 -0.078125 14.71875 -0.316406 C 14.796875 -0.554688 14.796875 -0.753906 14.679688 -0.992188 C 14.046875 -1.707031 13.726562 -2.5 13.726562 -3.410156 L 13.726562 -14.480469 C 13.726562 -14.839844 13.847656 -15.15625 14.125 -15.394531 C 14.363281 -15.632812 14.679688 -15.789062 15.078125 -15.789062 L 24.28125 -15.789062 C 24.636719 -15.789062 24.957031 -15.632812 25.234375 -15.394531 C 25.472656 -15.15625 25.628906 -14.839844 25.628906 -14.480469 L 25.628906 -3.410156 C 25.628906 -2.5 25.3125 -1.707031 24.679688 -1.03125 L 24.636719 -0.992188 C 24.480469 -0.753906 24.480469 -0.554688 24.597656 -0.316406 C 24.71875 -0.078125 24.914062 0 25.152344 0 L 33.960938 0 C 34.199219 0 34.359375 -0.078125 34.476562 -0.316406 C 34.597656 -0.554688 34.597656 -0.753906 34.476562 -0.992188 Z M 34.476562 -0.992188 "/></g></g></g><g fill="#ffc1b2" fill-opacity="0.302"><g transform="translate(75.266052, 199.394855)"><g><path d="M 29.996094 -33.246094 C 28.488281 -35.230469 26.703125 -36.738281 24.71875 -37.808594 C 22.695312 -38.84375 20.589844 -39.398438 18.371094 -39.398438 C 16.148438 -39.398438 14.003906 -38.84375 11.980469 -37.808594 C 9.957031 -36.738281 8.210938 -35.230469 6.703125 -33.246094 C 5.277344 -31.382812 4.207031 -29.28125 3.492188 -26.980469 C 2.738281 -24.679688 2.378906 -22.21875 2.378906 -19.679688 C 2.378906 -17.140625 2.738281 -14.679688 3.492188 -12.378906 C 4.207031 -10.039062 5.277344 -7.976562 6.703125 -6.148438 C 8.210938 -4.164062 9.957031 -2.617188 11.980469 -1.585938 C 14.003906 -0.515625 16.148438 0 18.371094 0 C 20.589844 0 22.695312 -0.515625 24.71875 -1.585938 C 26.703125 -2.617188 28.488281 -4.164062 29.996094 -6.148438 C 31.421875 -7.976562 32.492188 -10.039062 33.246094 -12.378906 C 33.960938 -14.679688 34.359375 -17.140625 34.359375 -19.679688 C 34.359375 -22.21875 33.960938 -24.679688 33.246094 -26.980469 C 32.492188 -29.28125 31.421875 -31.382812 29.996094 -33.246094 Z M 18.371094 -7.855469 C 17.257812 -7.855469 16.1875 -8.171875 15.234375 -8.808594 C 14.242188 -9.441406 13.371094 -10.277344 12.65625 -11.347656 C 11.902344 -12.417969 11.308594 -13.6875 10.871094 -15.117188 C 10.433594 -16.542969 10.234375 -18.050781 10.234375 -19.679688 C 10.234375 -21.265625 10.433594 -22.8125 10.871094 -24.242188 C 11.308594 -25.667969 11.902344 -26.898438 12.65625 -28.011719 C 13.371094 -29.082031 14.242188 -29.953125 15.234375 -30.589844 C 16.1875 -31.222656 17.257812 -31.542969 18.371094 -31.542969 C 19.480469 -31.542969 20.511719 -31.222656 21.503906 -30.589844 C 22.457031 -29.953125 23.328125 -29.082031 24.042969 -28.011719 C 24.757812 -26.898438 25.351562 -25.667969 25.789062 -24.242188 C 26.226562 -22.8125 26.464844 -21.265625 26.464844 -19.679688 C 26.464844 -18.050781 26.226562 -16.542969 25.789062 -15.117188 C 25.351562 -13.6875 24.757812 -12.417969 24.042969 -11.347656 C 23.328125 -10.277344 22.457031 -9.441406 21.503906 -8.808594 C 20.511719 -8.171875 19.480469 -7.855469 18.371094 -7.855469 Z M 18.371094 -7.855469 "/></g></g></g><g fill="#ffc1b2" fill-opacity="0.302"><g transform="translate(111.998529, 199.394855)"><g><path d="M 42.96875 -3.332031 L 42.96875 -36.105469 C 42.96875 -36.976562 43.246094 -37.769531 43.878906 -38.445312 C 44.039062 -38.644531 44.078125 -38.84375 44 -39.078125 C 43.878906 -39.316406 43.722656 -39.4375 43.484375 -39.4375 L 35.113281 -39.4375 L 35.074219 -39.398438 L 35.074219 -39.4375 L 34 -39.4375 C 33.722656 -39.4375 33.523438 -39.316406 33.445312 -39.078125 C 33.328125 -38.84375 33.328125 -38.644531 33.484375 -38.445312 C 33.644531 -38.207031 33.605469 -38.046875 33.445312 -37.929688 L 25.273438 -30.390625 C 24.996094 -30.152344 24.679688 -30.074219 24.359375 -30.074219 C 24.042969 -30.074219 23.765625 -30.152344 23.527344 -30.390625 L 15.234375 -38.007812 C 15.078125 -38.128906 15.078125 -38.246094 15.234375 -38.40625 C 15.394531 -38.605469 15.433594 -38.84375 15.355469 -39.078125 C 15.234375 -39.316406 15.035156 -39.4375 14.757812 -39.4375 L 5.394531 -39.4375 C 5.117188 -39.4375 4.917969 -39.316406 4.839844 -39.078125 C 4.722656 -38.84375 4.722656 -38.644531 4.878906 -38.445312 L 4.917969 -38.40625 C 5.515625 -37.730469 5.832031 -36.9375 5.832031 -36.066406 L 5.832031 -3.371094 C 5.832031 -2.460938 5.515625 -1.667969 4.917969 -1.03125 L 4.878906 -0.992188 C 4.722656 -0.753906 4.722656 -0.554688 4.839844 -0.316406 C 4.917969 -0.078125 5.117188 0 5.394531 0 L 14.164062 0 C 14.402344 0 14.601562 -0.078125 14.71875 -0.316406 C 14.796875 -0.554688 14.796875 -0.753906 14.679688 -0.992188 L 14.601562 -1.070312 C 13.964844 -1.707031 13.6875 -2.5 13.6875 -3.410156 L 13.6875 -27.457031 C 13.6875 -27.691406 13.765625 -27.851562 14.003906 -27.929688 C 14.242188 -28.011719 14.441406 -28.011719 14.640625 -27.851562 L 23.527344 -19.597656 C 23.765625 -19.363281 24.042969 -19.242188 24.398438 -19.242188 C 24.71875 -19.242188 25.035156 -19.363281 25.273438 -19.597656 L 34.160156 -27.851562 C 34.320312 -28.011719 34.515625 -28.011719 34.753906 -27.929688 C 34.992188 -27.851562 35.113281 -27.691406 35.113281 -27.457031 L 35.113281 -3.453125 C 35.113281 -2.578125 34.796875 -1.785156 34.160156 -1.109375 L 34.082031 -0.992188 C 33.921875 -0.753906 33.921875 -0.554688 34.042969 -0.316406 C 34.121094 -0.078125 34.320312 0 34.597656 0 L 43.484375 0 C 43.722656 0 43.878906 -0.078125 44 -0.316406 C 44.078125 -0.554688 44.039062 -0.753906 43.878906 -0.992188 C 43.246094 -1.625 42.96875 -2.421875 42.96875 -3.332031 Z M 42.96875 -3.332031 "/></g></g></g><g fill="#ffc1b2" fill-opacity="0.302"><g transform="translate(160.790045, 199.394855)"><g><path d="M 28.882812 -39.714844 C 28.207031 -39.078125 27.414062 -38.800781 26.542969 -38.800781 L 5.394531 -38.800781 C 5.117188 -38.800781 4.917969 -38.683594 4.839844 -38.445312 C 4.722656 -38.207031 4.722656 -38.007812 4.878906 -37.808594 L 5 -37.691406 C 5.632812 -36.976562 5.953125 -36.144531 5.953125 -35.191406 L 5.953125 -2.976562 C 5.953125 -2.5 5.871094 -2.0625 5.714844 -1.625 C 5.554688 -1.191406 5.316406 -0.792969 5 -0.476562 L 4.878906 -0.355469 C 4.722656 -0.117188 4.722656 0.078125 4.839844 0.316406 C 4.917969 0.554688 5.117188 0.636719 5.394531 0.636719 L 26.542969 0.636719 C 27.414062 0.636719 28.207031 0.953125 28.882812 1.546875 C 29.082031 1.746094 29.320312 1.785156 29.558594 1.667969 C 29.796875 1.585938 29.953125 1.386719 29.953125 1.070312 L 29.953125 -7.777344 C 29.953125 -8.015625 29.835938 -8.210938 29.597656 -8.332031 C 29.359375 -8.410156 29.121094 -8.371094 28.960938 -8.210938 C 28.25 -7.539062 27.414062 -7.222656 26.464844 -7.222656 L 14.796875 -7.222656 C 14.519531 -7.222656 14.28125 -7.300781 14.085938 -7.5 C 13.886719 -7.65625 13.808594 -7.894531 13.808594 -8.210938 L 13.808594 -14.164062 C 13.808594 -14.441406 13.886719 -14.679688 14.085938 -14.878906 C 14.28125 -15.035156 14.519531 -15.15625 14.796875 -15.15625 L 18.289062 -15.15625 C 19.242188 -15.15625 20.074219 -14.796875 20.789062 -14.164062 C 20.988281 -14.003906 21.1875 -14.003906 21.425781 -14.125 C 21.664062 -14.242188 21.78125 -14.441406 21.78125 -14.679688 L 21.78125 -23.488281 C 21.78125 -23.726562 21.664062 -23.882812 21.425781 -24.003906 C 21.1875 -24.121094 20.988281 -24.121094 20.789062 -24.003906 C 20.074219 -23.328125 19.242188 -23.011719 18.289062 -23.011719 L 14.796875 -23.011719 C 14.519531 -23.011719 14.28125 -23.089844 14.085938 -23.289062 C 13.886719 -23.449219 13.808594 -23.6875 13.808594 -24.003906 L 13.808594 -29.953125 C 13.808594 -30.230469 13.886719 -30.46875 14.085938 -30.667969 C 14.28125 -30.828125 14.519531 -30.945312 14.796875 -30.945312 L 26.464844 -30.945312 C 27.414062 -30.945312 28.25 -30.589844 28.960938 -29.953125 C 29.121094 -29.757812 29.359375 -29.714844 29.597656 -29.835938 C 29.835938 -29.914062 29.953125 -30.113281 29.953125 -30.390625 L 29.953125 -39.277344 C 29.953125 -39.515625 29.796875 -39.714844 29.558594 -39.832031 C 29.320312 -39.914062 29.082031 -39.875 28.882812 -39.714844 Z M 28.882812 -39.714844 "/></g></g></g><g fill="#ffc1b2" fill-opacity="0.302"><g transform="translate(195.499458, 199.394855)"><g><path d="M 27.257812 -41.421875 C 26.582031 -40.785156 25.789062 -40.507812 24.914062 -40.507812 L 21.027344 -40.507812 C 18.132812 -40.507812 15.511719 -39.953125 13.132812 -38.882812 C 10.75 -37.808594 8.726562 -36.222656 6.984375 -34.160156 C 5.476562 -32.335938 4.324219 -30.3125 3.53125 -28.011719 C 2.738281 -25.710938 2.378906 -23.328125 2.378906 -20.789062 C 2.378906 -18.328125 2.777344 -15.910156 3.570312 -13.570312 C 4.363281 -11.1875 5.515625 -9.085938 7.101562 -7.261719 C 8.6875 -5.394531 10.632812 -3.886719 12.933594 -2.777344 C 15.234375 -1.625 17.933594 -1.070312 21.027344 -1.070312 L 24.914062 -1.070312 C 25.789062 -1.070312 26.582031 -0.753906 27.257812 -0.160156 C 27.457031 0.0390625 27.691406 0.078125 27.929688 -0.0390625 C 28.167969 -0.117188 28.289062 -0.316406 28.289062 -0.636719 L 28.289062 -9.480469 C 28.289062 -9.71875 28.167969 -9.917969 27.929688 -10.039062 C 27.691406 -10.117188 27.496094 -10.078125 27.335938 -9.917969 C 26.582031 -9.246094 25.75 -8.925781 24.835938 -8.925781 L 21.027344 -8.925781 C 18.886719 -8.925781 17.101562 -9.324219 15.710938 -10.15625 C 14.324219 -10.949219 13.210938 -11.980469 12.417969 -13.210938 C 11.625 -14.402344 11.03125 -15.710938 10.710938 -17.058594 C 10.394531 -18.410156 10.234375 -19.679688 10.234375 -20.789062 C 10.234375 -22.375 10.472656 -23.882812 10.949219 -25.351562 C 11.425781 -26.78125 12.140625 -28.050781 13.011719 -29.121094 C 14.957031 -31.460938 17.617188 -32.652344 21.027344 -32.652344 L 24.835938 -32.652344 C 25.75 -32.652344 26.582031 -32.296875 27.335938 -31.660156 C 27.496094 -31.460938 27.691406 -31.421875 27.929688 -31.542969 C 28.167969 -31.621094 28.289062 -31.820312 28.289062 -32.097656 L 28.289062 -40.984375 C 28.289062 -41.222656 28.167969 -41.421875 27.929688 -41.539062 C 27.691406 -41.617188 27.457031 -41.578125 27.257812 -41.421875 Z M 27.257812 -41.421875 "/></g></g></g><g fill="#ffc1b2" fill-opacity="0.302"><g transform="translate(228.582483, 199.394855)"><g><path d="M 34.476562 -0.992188 L 34.398438 -1.03125 C 33.761719 -1.707031 33.484375 -2.5 33.484375 -3.453125 L 33.484375 -35.984375 C 33.484375 -36.898438 33.761719 -37.691406 34.398438 -38.40625 L 34.476562 -38.445312 C 34.597656 -38.644531 34.597656 -38.84375 34.476562 -39.078125 C 34.359375 -39.316406 34.199219 -39.4375 33.960938 -39.4375 L 25.152344 -39.4375 C 24.914062 -39.4375 24.71875 -39.316406 24.597656 -39.078125 C 24.480469 -38.84375 24.480469 -38.644531 24.636719 -38.445312 L 24.679688 -38.445312 C 25.3125 -37.730469 25.628906 -36.898438 25.628906 -36.023438 L 25.628906 -24.957031 C 25.628906 -24.558594 25.472656 -24.242188 25.234375 -24.003906 C 24.957031 -23.765625 24.636719 -23.644531 24.28125 -23.644531 L 15.078125 -23.644531 C 14.679688 -23.644531 14.363281 -23.765625 14.125 -24.003906 C 13.847656 -24.242188 13.726562 -24.558594 13.726562 -24.957031 L 13.726562 -36.066406 C 13.726562 -36.9375 14.046875 -37.730469 14.679688 -38.445312 C 14.796875 -38.644531 14.796875 -38.84375 14.71875 -39.078125 C 14.601562 -39.316406 14.402344 -39.4375 14.164062 -39.4375 L 5.394531 -39.4375 C 5.117188 -39.4375 4.917969 -39.316406 4.839844 -39.078125 C 4.722656 -38.84375 4.722656 -38.644531 4.878906 -38.445312 L 4.960938 -38.367188 C 5.554688 -37.691406 5.871094 -36.898438 5.871094 -35.984375 L 5.871094 -3.492188 C 5.871094 -2.539062 5.554688 -1.707031 4.960938 -1.070312 L 4.878906 -0.992188 C 4.722656 -0.753906 4.722656 -0.554688 4.839844 -0.316406 C 4.917969 -0.078125 5.117188 0 5.394531 0 L 14.164062 0 C 14.402344 0 14.601562 -0.078125 14.71875 -0.316406 C 14.796875 -0.554688 14.796875 -0.753906 14.679688 -0.992188 C 14.046875 -1.707031 13.726562 -2.5 13.726562 -3.410156 L 13.726562 -14.480469 C 13.726562 -14.839844 13.847656 -15.15625 14.125 -15.394531 C 14.363281 -15.632812 14.679688 -15.789062 15.078125 -15.789062 L 24.28125 -15.789062 C 24.636719 -15.789062 24.957031 -15.632812 25.234375 -15.394531 C 25.472656 -15.15625 25.628906 -14.839844 25.628906 -14.480469 L 25.628906 -3.410156 C 25.628906 -2.5 25.3125 -1.707031 24.679688 -1.03125 L 24.636719 -0.992188 C 24.480469 -0.753906 24.480469 -0.554688 24.597656 -0.316406 C 24.71875 -0.078125 24.914062 0 25.152344 0 L 33.960938 0 C 34.199219 0 34.359375 -0.078125 34.476562 -0.316406 C 34.597656 -0.554688 34.597656 -0.753906 34.476562 -0.992188 Z M 34.476562 -0.992188 "/></g></g></g><g fill="#ffc1b2" fill-opacity="0.302"><g transform="translate(267.933036, 199.394855)"><g><path d="M 28.882812 -39.714844 C 28.207031 -39.078125 27.414062 -38.800781 26.542969 -38.800781 L 5.394531 -38.800781 C 5.117188 -38.800781 4.917969 -38.683594 4.839844 -38.445312 C 4.722656 -38.207031 4.722656 -38.007812 4.878906 -37.808594 L 5 -37.691406 C 5.632812 -36.976562 5.953125 -36.144531 5.953125 -35.191406 L 5.953125 -2.976562 C 5.953125 -2.5 5.871094 -2.0625 5.714844 -1.625 C 5.554688 -1.191406 5.316406 -0.792969 5 -0.476562 L 4.878906 -0.355469 C 4.722656 -0.117188 4.722656 0.078125 4.839844 0.316406 C 4.917969 0.554688 5.117188 0.636719 5.394531 0.636719 L 26.542969 0.636719 C 27.414062 0.636719 28.207031 0.953125 28.882812 1.546875 C 29.082031 1.746094 29.320312 1.785156 29.558594 1.667969 C 29.796875 1.585938 29.953125 1.386719 29.953125 1.070312 L 29.953125 -7.777344 C 29.953125 -8.015625 29.835938 -8.210938 29.597656 -8.332031 C 29.359375 -8.410156 29.121094 -8.371094 28.960938 -8.210938 C 28.25 -7.539062 27.414062 -7.222656 26.464844 -7.222656 L 14.796875 -7.222656 C 14.519531 -7.222656 14.28125 -7.300781 14.085938 -7.5 C 13.886719 -7.65625 13.808594 -7.894531 13.808594 -8.210938 L 13.808594 -14.164062 C 13.808594 -14.441406 13.886719 -14.679688 14.085938 -14.878906 C 14.28125 -15.035156 14.519531 -15.15625 14.796875 -15.15625 L 18.289062 -15.15625 C 19.242188 -15.15625 20.074219 -14.796875 20.789062 -14.164062 C 20.988281 -14.003906 21.1875 -14.003906 21.425781 -14.125 C 21.664062 -14.242188 21.78125 -14.441406 21.78125 -14.679688 L 21.78125 -23.488281 C 21.78125 -23.726562 21.664062 -23.882812 21.425781 -24.003906 C 21.1875 -24.121094 20.988281 -24.121094 20.789062 -24.003906 C 20.074219 -23.328125 19.242188 -23.011719 18.289062 -23.011719 L 14.796875 -23.011719 C 14.519531 -23.011719 14.28125 -23.089844 14.085938 -23.289062 C 13.886719 -23.449219 13.808594 -23.6875 13.808594 -24.003906 L 13.808594 -29.953125 C 13.808594 -30.230469 13.886719 -30.46875 14.085938 -30.667969 C 14.28125 -30.828125 14.519531 -30.945312 14.796875 -30.945312 L 26.464844 -30.945312 C 27.414062 -30.945312 28.25 -30.589844 28.960938 -29.953125 C 29.121094 -29.757812 29.359375 -29.714844 29.597656 -29.835938 C 29.835938 -29.914062 29.953125 -30.113281 29.953125 -30.390625 L 29.953125 -39.277344 C 29.953125 -39.515625 29.796875 -39.714844 29.558594 -39.832031 C 29.320312 -39.914062 29.082031 -39.875 28.882812 -39.714844 Z M 28.882812 -39.714844 "/></g></g></g><g fill="#ffc1b2" fill-opacity="0.302"><g transform="translate(302.642461, 199.394855)"><g><path d="M 28.84375 -40.390625 C 28.128906 -39.753906 27.335938 -39.4375 26.382812 -39.4375 L 5.394531 -39.4375 C 5.117188 -39.4375 4.917969 -39.316406 4.839844 -39.078125 C 4.722656 -38.84375 4.722656 -38.644531 4.878906 -38.445312 L 4.917969 -38.40625 C 5.554688 -37.691406 5.871094 -36.859375 5.871094 -35.945312 L 5.871094 -3.453125 C 5.871094 -2.5 5.554688 -1.707031 4.917969 -0.992188 L 4.878906 -0.953125 C 4.722656 -0.714844 4.722656 -0.515625 4.839844 -0.316406 C 4.917969 -0.078125 5.117188 0 5.394531 0 L 14.164062 0 C 14.402344 0 14.601562 -0.078125 14.71875 -0.316406 C 14.796875 -0.515625 14.796875 -0.714844 14.679688 -0.953125 C 14.046875 -1.667969 13.726562 -2.460938 13.726562 -3.410156 L 13.726562 -14.957031 C 13.726562 -15.15625 13.808594 -15.355469 13.964844 -15.511719 C 14.125 -15.671875 14.324219 -15.789062 14.5625 -15.789062 L 18.25 -15.789062 C 19.203125 -15.789062 19.996094 -15.433594 20.671875 -14.796875 L 20.710938 -14.796875 C 20.910156 -14.640625 21.105469 -14.640625 21.34375 -14.757812 C 21.582031 -14.839844 21.703125 -15.035156 21.703125 -15.316406 L 21.703125 -24.082031 C 21.703125 -24.320312 21.582031 -24.519531 21.34375 -24.636719 C 21.105469 -24.757812 20.910156 -24.757812 20.710938 -24.597656 C 19.996094 -23.964844 19.203125 -23.644531 18.25 -23.644531 L 14.5625 -23.644531 C 14.324219 -23.644531 14.125 -23.726562 13.964844 -23.882812 C 13.808594 -24.042969 13.726562 -24.242188 13.726562 -24.480469 L 13.726562 -30.707031 C 13.726562 -30.945312 13.808594 -31.144531 13.964844 -31.304688 C 14.125 -31.460938 14.324219 -31.542969 14.5625 -31.542969 L 26.382812 -31.542969 C 27.335938 -31.542969 28.128906 -31.222656 28.84375 -30.589844 C 29.042969 -30.429688 29.242188 -30.429688 29.480469 -30.550781 C 29.714844 -30.628906 29.835938 -30.828125 29.835938 -31.105469 L 29.835938 -39.875 C 29.835938 -40.113281 29.714844 -40.308594 29.480469 -40.429688 C 29.242188 -40.507812 29.042969 -40.507812 28.84375 -40.390625 Z M 28.84375 -40.390625 "/></g></g></g><g fill="#ffc1b2" fill-opacity="0.502"><g transform="translate(36.965557, 199.840592)"><g><path d="M 34.476562 -0.992188 L 34.398438 -1.03125 C 33.761719 -1.707031 33.484375 -2.5 33.484375 -3.453125 L 33.484375 -35.984375 C 33.484375 -36.898438 33.761719 -37.691406 34.398438 -38.40625 L 34.476562 -38.445312 C 34.597656 -38.644531 34.597656 -38.84375 34.476562 -39.078125 C 34.359375 -39.316406 34.199219 -39.4375 33.960938 -39.4375 L 25.152344 -39.4375 C 24.914062 -39.4375 24.71875 -39.316406 24.597656 -39.078125 C 24.480469 -38.84375 24.480469 -38.644531 24.636719 -38.445312 L 24.679688 -38.445312 C 25.3125 -37.730469 25.628906 -36.898438 25.628906 -36.023438 L 25.628906 -24.957031 C 25.628906 -24.558594 25.472656 -24.242188 25.234375 -24.003906 C 24.957031 -23.765625 24.636719 -23.644531 24.28125 -23.644531 L 15.078125 -23.644531 C 14.679688 -23.644531 14.363281 -23.765625 14.125 -24.003906 C 13.847656 -24.242188 13.726562 -24.558594 13.726562 -24.957031 L 13.726562 -36.066406 C 13.726562 -36.9375 14.046875 -37.730469 14.679688 -38.445312 C 14.796875 -38.644531 14.796875 -38.84375 14.71875 -39.078125 C 14.601562 -39.316406 14.402344 -39.4375 14.164062 -39.4375 L 5.394531 -39.4375 C 5.117188 -39.4375 4.917969 -39.316406 4.839844 -39.078125 C 4.722656 -38.84375 4.722656 -38.644531 4.878906 -38.445312 L 4.960938 -38.367188 C 5.554688 -37.691406 5.871094 -36.898438 5.871094 -35.984375 L 5.871094 -3.492188 C 5.871094 -2.539062 5.554688 -1.707031 4.960938 -1.070312 L 4.878906 -0.992188 C 4.722656 -0.753906 4.722656 -0.554688 4.839844 -0.316406 C 4.917969 -0.078125 5.117188 0 5.394531 0 L 14.164062 0 C 14.402344 0 14.601562 -0.078125 14.71875 -0.316406 C 14.796875 -0.554688 14.796875 -0.753906 14.679688 -0.992188 C 14.046875 -1.707031 13.726562 -2.5 13.726562 -3.410156 L 13.726562 -14.480469 C 13.726562 -14.839844 13.847656 -15.15625 14.125 -15.394531 C 14.363281 -15.632812 14.679688 -15.789062 15.078125 -15.789062 L 24.28125 -15.789062 C 24.636719 -15.789062 24.957031 -15.632812 25.234375 -15.394531 C 25.472656 -15.15625 25.628906 -14.839844 25.628906 -14.480469 L 25.628906 -3.410156 C 25.628906 -2.5 25.3125 -1.707031 24.679688 -1.03125 L 24.636719 -0.992188 C 24.480469 -0.753906 24.480469 -0.554688 24.597656 -0.316406 C 24.71875 -0.078125 24.914062 0 25.152344 0 L 33.960938 0 C 34.199219 0 34.359375 -0.078125 34.476562 -0.316406 C 34.597656 -0.554688 34.597656 -0.753906 34.476562 -0.992188 Z M 34.476562 -0.992188 "/></g></g></g><g fill="#ffc1b2" fill-opacity="0.502"><g transform="translate(76.316121, 199.840592)"><g><path d="M 29.996094 -33.246094 C 28.488281 -35.230469 26.703125 -36.738281 24.71875 -37.808594 C 22.695312 -38.84375 20.589844 -39.398438 18.371094 -39.398438 C 16.148438 -39.398438 14.003906 -38.84375 11.980469 -37.808594 C 9.957031 -36.738281 8.210938 -35.230469 6.703125 -33.246094 C 5.277344 -31.382812 4.207031 -29.28125 3.492188 -26.980469 C 2.738281 -24.679688 2.378906 -22.21875 2.378906 -19.679688 C 2.378906 -17.140625 2.738281 -14.679688 3.492188 -12.378906 C 4.207031 -10.039062 5.277344 -7.976562 6.703125 -6.148438 C 8.210938 -4.164062 9.957031 -2.617188 11.980469 -1.585938 C 14.003906 -0.515625 16.148438 0 18.371094 0 C 20.589844 0 22.695312 -0.515625 24.71875 -1.585938 C 26.703125 -2.617188 28.488281 -4.164062 29.996094 -6.148438 C 31.421875 -7.976562 32.492188 -10.039062 33.246094 -12.378906 C 33.960938 -14.679688 34.359375 -17.140625 34.359375 -19.679688 C 34.359375 -22.21875 33.960938 -24.679688 33.246094 -26.980469 C 32.492188 -29.28125 31.421875 -31.382812 29.996094 -33.246094 Z M 18.371094 -7.855469 C 17.257812 -7.855469 16.1875 -8.171875 15.234375 -8.808594 C 14.242188 -9.441406 13.371094 -10.277344 12.65625 -11.347656 C 11.902344 -12.417969 11.308594 -13.6875 10.871094 -15.117188 C 10.433594 -16.542969 10.234375 -18.050781 10.234375 -19.679688 C 10.234375 -21.265625 10.433594 -22.8125 10.871094 -24.242188 C 11.308594 -25.667969 11.902344 -26.898438 12.65625 -28.011719 C 13.371094 -29.082031 14.242188 -29.953125 15.234375 -30.589844 C 16.1875 -31.222656 17.257812 -31.542969 18.371094 -31.542969 C 19.480469 -31.542969 20.511719 -31.222656 21.503906 -30.589844 C 22.457031 -29.953125 23.328125 -29.082031 24.042969 -28.011719 C 24.757812 -26.898438 25.351562 -25.667969 25.789062 -24.242188 C 26.226562 -22.8125 26.464844 -21.265625 26.464844 -19.679688 C 26.464844 -18.050781 26.226562 -16.542969 25.789062 -15.117188 C 25.351562 -13.6875 24.757812 -12.417969 24.042969 -11.347656 C 23.328125 -10.277344 22.457031 -9.441406 21.503906 -8.808594 C 20.511719 -8.171875 19.480469 -7.855469 18.371094 -7.855469 Z M 18.371094 -7.855469 "/></g></g></g><g fill="#ffc1b2" fill-opacity="0.502"><g transform="translate(113.048598, 199.840592)"><g><path d="M 42.96875 -3.332031 L 42.96875 -36.105469 C 42.96875 -36.976562 43.246094 -37.769531 43.878906 -38.445312 C 44.039062 -38.644531 44.078125 -38.84375 44 -39.078125 C 43.878906 -39.316406 43.722656 -39.4375 43.484375 -39.4375 L 35.113281 -39.4375 L 35.074219 -39.398438 L 35.074219 -39.4375 L 34 -39.4375 C 33.722656 -39.4375 33.523438 -39.316406 33.445312 -39.078125 C 33.328125 -38.84375 33.328125 -38.644531 33.484375 -38.445312 C 33.644531 -38.207031 33.605469 -38.046875 33.445312 -37.929688 L 25.273438 -30.390625 C 24.996094 -30.152344 24.679688 -30.074219 24.359375 -30.074219 C 24.042969 -30.074219 23.765625 -30.152344 23.527344 -30.390625 L 15.234375 -38.007812 C 15.078125 -38.128906 15.078125 -38.246094 15.234375 -38.40625 C 15.394531 -38.605469 15.433594 -38.84375 15.355469 -39.078125 C 15.234375 -39.316406 15.035156 -39.4375 14.757812 -39.4375 L 5.394531 -39.4375 C 5.117188 -39.4375 4.917969 -39.316406 4.839844 -39.078125 C 4.722656 -38.84375 4.722656 -38.644531 4.878906 -38.445312 L 4.917969 -38.40625 C 5.515625 -37.730469 5.832031 -36.9375 5.832031 -36.066406 L 5.832031 -3.371094 C 5.832031 -2.460938 5.515625 -1.667969 4.917969 -1.03125 L 4.878906 -0.992188 C 4.722656 -0.753906 4.722656 -0.554688 4.839844 -0.316406 C 4.917969 -0.078125 5.117188 0 5.394531 0 L 14.164062 0 C 14.402344 0 14.601562 -0.078125 14.71875 -0.316406 C 14.796875 -0.554688 14.796875 -0.753906 14.679688 -0.992188 L 14.601562 -1.070312 C 13.964844 -1.707031 13.6875 -2.5 13.6875 -3.410156 L 13.6875 -27.457031 C 13.6875 -27.691406 13.765625 -27.851562 14.003906 -27.929688 C 14.242188 -28.011719 14.441406 -28.011719 14.640625 -27.851562 L 23.527344 -19.597656 C 23.765625 -19.363281 24.042969 -19.242188 24.398438 -19.242188 C 24.71875 -19.242188 25.035156 -19.363281 25.273438 -19.597656 L 34.160156 -27.851562 C 34.320312 -28.011719 34.515625 -28.011719 34.753906 -27.929688 C 34.992188 -27.851562 35.113281 -27.691406 35.113281 -27.457031 L 35.113281 -3.453125 C 35.113281 -2.578125 34.796875 -1.785156 34.160156 -1.109375 L 34.082031 -0.992188 C 33.921875 -0.753906 33.921875 -0.554688 34.042969 -0.316406 C 34.121094 -0.078125 34.320312 0 34.597656 0 L 43.484375 0 C 43.722656 0 43.878906 -0.078125 44 -0.316406 C 44.078125 -0.554688 44.039062 -0.753906 43.878906 -0.992188 C 43.246094 -1.625 42.96875 -2.421875 42.96875 -3.332031 Z M 42.96875 -3.332031 "/></g></g></g><g fill="#ffc1b2" fill-opacity="0.502"><g transform="translate(161.840114, 199.840592)"><g><path d="M 28.882812 -39.714844 C 28.207031 -39.078125 27.414062 -38.800781 26.542969 -38.800781 L 5.394531 -38.800781 C 5.117188 -38.800781 4.917969 -38.683594 4.839844 -38.445312 C 4.722656 -38.207031 4.722656 -38.007812 4.878906 -37.808594 L 5 -37.691406 C 5.632812 -36.976562 5.953125 -36.144531 5.953125 -35.191406 L 5.953125 -2.976562 C 5.953125 -2.5 5.871094 -2.0625 5.714844 -1.625 C 5.554688 -1.191406 5.316406 -0.792969 5 -0.476562 L 4.878906 -0.355469 C 4.722656 -0.117188 4.722656 0.078125 4.839844 0.316406 C 4.917969 0.554688 5.117188 0.636719 5.394531 0.636719 L 26.542969 0.636719 C 27.414062 0.636719 28.207031 0.953125 28.882812 1.546875 C 29.082031 1.746094 29.320312 1.785156 29.558594 1.667969 C 29.796875 1.585938 29.953125 1.386719 29.953125 1.070312 L 29.953125 -7.777344 C 29.953125 -8.015625 29.835938 -8.210938 29.597656 -8.332031 C 29.359375 -8.410156 29.121094 -8.371094 28.960938 -8.210938 C 28.25 -7.539062 27.414062 -7.222656 26.464844 -7.222656 L 14.796875 -7.222656 C 14.519531 -7.222656 14.28125 -7.300781 14.085938 -7.5 C 13.886719 -7.65625 13.808594 -7.894531 13.808594 -8.210938 L 13.808594 -14.164062 C 13.808594 -14.441406 13.886719 -14.679688 14.085938 -14.878906 C 14.28125 -15.035156 14.519531 -15.15625 14.796875 -15.15625 L 18.289062 -15.15625 C 19.242188 -15.15625 20.074219 -14.796875 20.789062 -14.164062 C 20.988281 -14.003906 21.1875 -14.003906 21.425781 -14.125 C 21.664062 -14.242188 21.78125 -14.441406 21.78125 -14.679688 L 21.78125 -23.488281 C 21.78125 -23.726562 21.664062 -23.882812 21.425781 -24.003906 C 21.1875 -24.121094 20.988281 -24.121094 20.789062 -24.003906 C 20.074219 -23.328125 19.242188 -23.011719 18.289062 -23.011719 L 14.796875 -23.011719 C 14.519531 -23.011719 14.28125 -23.089844 14.085938 -23.289062 C 13.886719 -23.449219 13.808594 -23.6875 13.808594 -24.003906 L 13.808594 -29.953125 C 13.808594 -30.230469 13.886719 -30.46875 14.085938 -30.667969 C 14.28125 -30.828125 14.519531 -30.945312 14.796875 -30.945312 L 26.464844 -30.945312 C 27.414062 -30.945312 28.25 -30.589844 28.960938 -29.953125 C 29.121094 -29.757812 29.359375 -29.714844 29.597656 -29.835938 C 29.835938 -29.914062 29.953125 -30.113281 29.953125 -30.390625 L 29.953125 -39.277344 C 29.953125 -39.515625 29.796875 -39.714844 29.558594 -39.832031 C 29.320312 -39.914062 29.082031 -39.875 28.882812 -39.714844 Z M 28.882812 -39.714844 "/></g></g></g><g fill="#ffc1b2" fill-opacity="0.502"><g transform="translate(196.549528, 199.840592)"><g><path d="M 27.257812 -41.421875 C 26.582031 -40.785156 25.789062 -40.507812 24.914062 -40.507812 L 21.027344 -40.507812 C 18.132812 -40.507812 15.511719 -39.953125 13.132812 -38.882812 C 10.75 -37.808594 8.726562 -36.222656 6.984375 -34.160156 C 5.476562 -32.335938 4.324219 -30.3125 3.53125 -28.011719 C 2.738281 -25.710938 2.378906 -23.328125 2.378906 -20.789062 C 2.378906 -18.328125 2.777344 -15.910156 3.570312 -13.570312 C 4.363281 -11.1875 5.515625 -9.085938 7.101562 -7.261719 C 8.6875 -5.394531 10.632812 -3.886719 12.933594 -2.777344 C 15.234375 -1.625 17.933594 -1.070312 21.027344 -1.070312 L 24.914062 -1.070312 C 25.789062 -1.070312 26.582031 -0.753906 27.257812 -0.160156 C 27.457031 0.0390625 27.691406 0.078125 27.929688 -0.0390625 C 28.167969 -0.117188 28.289062 -0.316406 28.289062 -0.636719 L 28.289062 -9.480469 C 28.289062 -9.71875 28.167969 -9.917969 27.929688 -10.039062 C 27.691406 -10.117188 27.496094 -10.078125 27.335938 -9.917969 C 26.582031 -9.246094 25.75 -8.925781 24.835938 -8.925781 L 21.027344 -8.925781 C 18.886719 -8.925781 17.101562 -9.324219 15.710938 -10.15625 C 14.324219 -10.949219 13.210938 -11.980469 12.417969 -13.210938 C 11.625 -14.402344 11.03125 -15.710938 10.710938 -17.058594 C 10.394531 -18.410156 10.234375 -19.679688 10.234375 -20.789062 C 10.234375 -22.375 10.472656 -23.882812 10.949219 -25.351562 C 11.425781 -26.78125 12.140625 -28.050781 13.011719 -29.121094 C 14.957031 -31.460938 17.617188 -32.652344 21.027344 -32.652344 L 24.835938 -32.652344 C 25.75 -32.652344 26.582031 -32.296875 27.335938 -31.660156 C 27.496094 -31.460938 27.691406 -31.421875 27.929688 -31.542969 C 28.167969 -31.621094 28.289062 -31.820312 28.289062 -32.097656 L 28.289062 -40.984375 C 28.289062 -41.222656 28.167969 -41.421875 27.929688 -41.539062 C 27.691406 -41.617188 27.457031 -41.578125 27.257812 -41.421875 Z M 27.257812 -41.421875 "/></g></g></g><g fill="#ffc1b2" fill-opacity="0.502"><g transform="translate(229.632553, 199.840592)"><g><path d="M 34.476562 -0.992188 L 34.398438 -1.03125 C 33.761719 -1.707031 33.484375 -2.5 33.484375 -3.453125 L 33.484375 -35.984375 C 33.484375 -36.898438 33.761719 -37.691406 34.398438 -38.40625 L 34.476562 -38.445312 C 34.597656 -38.644531 34.597656 -38.84375 34.476562 -39.078125 C 34.359375 -39.316406 34.199219 -39.4375 33.960938 -39.4375 L 25.152344 -39.4375 C 24.914062 -39.4375 24.71875 -39.316406 24.597656 -39.078125 C 24.480469 -38.84375 24.480469 -38.644531 24.636719 -38.445312 L 24.679688 -38.445312 C 25.3125 -37.730469 25.628906 -36.898438 25.628906 -36.023438 L 25.628906 -24.957031 C 25.628906 -24.558594 25.472656 -24.242188 25.234375 -24.003906 C 24.957031 -23.765625 24.636719 -23.644531 24.28125 -23.644531 L 15.078125 -23.644531 C 14.679688 -23.644531 14.363281 -23.765625 14.125 -24.003906 C 13.847656 -24.242188 13.726562 -24.558594 13.726562 -24.957031 L 13.726562 -36.066406 C 13.726562 -36.9375 14.046875 -37.730469 14.679688 -38.445312 C 14.796875 -38.644531 14.796875 -38.84375 14.71875 -39.078125 C 14.601562 -39.316406 14.402344 -39.4375 14.164062 -39.4375 L 5.394531 -39.4375 C 5.117188 -39.4375 4.917969 -39.316406 4.839844 -39.078125 C 4.722656 -38.84375 4.722656 -38.644531 4.878906 -38.445312 L 4.960938 -38.367188 C 5.554688 -37.691406 5.871094 -36.898438 5.871094 -35.984375 L 5.871094 -3.492188 C 5.871094 -2.539062 5.554688 -1.707031 4.960938 -1.070312 L 4.878906 -0.992188 C 4.722656 -0.753906 4.722656 -0.554688 4.839844 -0.316406 C 4.917969 -0.078125 5.117188 0 5.394531 0 L 14.164062 0 C 14.402344 0 14.601562 -0.078125 14.71875 -0.316406 C 14.796875 -0.554688 14.796875 -0.753906 14.679688 -0.992188 C 14.046875 -1.707031 13.726562 -2.5 13.726562 -3.410156 L 13.726562 -14.480469 C 13.726562 -14.839844 13.847656 -15.15625 14.125 -15.394531 C 14.363281 -15.632812 14.679688 -15.789062 15.078125 -15.789062 L 24.28125 -15.789062 C 24.636719 -15.789062 24.957031 -15.632812 25.234375 -15.394531 C 25.472656 -15.15625 25.628906 -14.839844 25.628906 -14.480469 L 25.628906 -3.410156 C 25.628906 -2.5 25.3125 -1.707031 24.679688 -1.03125 L 24.636719 -0.992188 C 24.480469 -0.753906 24.480469 -0.554688 24.597656 -0.316406 C 24.71875 -0.078125 24.914062 0 25.152344 0 L 33.960938 0 C 34.199219 0 34.359375 -0.078125 34.476562 -0.316406 C 34.597656 -0.554688 34.597656 -0.753906 34.476562 -0.992188 Z M 34.476562 -0.992188 "/></g></g></g><g fill="#ffc1b2" fill-opacity="0.502"><g transform="translate(268.983105, 199.840592)"><g><path d="M 28.882812 -39.714844 C 28.207031 -39.078125 27.414062 -38.800781 26.542969 -38.800781 L 5.394531 -38.800781 C 5.117188 -38.800781 4.917969 -38.683594 4.839844 -38.445312 C 4.722656 -38.207031 4.722656 -38.007812 4.878906 -37.808594 L 5 -37.691406 C 5.632812 -36.976562 5.953125 -36.144531 5.953125 -35.191406 L 5.953125 -2.976562 C 5.953125 -2.5 5.871094 -2.0625 5.714844 -1.625 C 5.554688 -1.191406 5.316406 -0.792969 5 -0.476562 L 4.878906 -0.355469 C 4.722656 -0.117188 4.722656 0.078125 4.839844 0.316406 C 4.917969 0.554688 5.117188 0.636719 5.394531 0.636719 L 26.542969 0.636719 C 27.414062 0.636719 28.207031 0.953125 28.882812 1.546875 C 29.082031 1.746094 29.320312 1.785156 29.558594 1.667969 C 29.796875 1.585938 29.953125 1.386719 29.953125 1.070312 L 29.953125 -7.777344 C 29.953125 -8.015625 29.835938 -8.210938 29.597656 -8.332031 C 29.359375 -8.410156 29.121094 -8.371094 28.960938 -8.210938 C 28.25 -7.539062 27.414062 -7.222656 26.464844 -7.222656 L 14.796875 -7.222656 C 14.519531 -7.222656 14.28125 -7.300781 14.085938 -7.5 C 13.886719 -7.65625 13.808594 -7.894531 13.808594 -8.210938 L 13.808594 -14.164062 C 13.808594 -14.441406 13.886719 -14.679688 14.085938 -14.878906 C 14.28125 -15.035156 14.519531 -15.15625 14.796875 -15.15625 L 18.289062 -15.15625 C 19.242188 -15.15625 20.074219 -14.796875 20.789062 -14.164062 C 20.988281 -14.003906 21.1875 -14.003906 21.425781 -14.125 C 21.664062 -14.242188 21.78125 -14.441406 21.78125 -14.679688 L 21.78125 -23.488281 C 21.78125 -23.726562 21.664062 -23.882812 21.425781 -24.003906 C 21.1875 -24.121094 20.988281 -24.121094 20.789062 -24.003906 C 20.074219 -23.328125 19.242188 -23.011719 18.289062 -23.011719 L 14.796875 -23.011719 C 14.519531 -23.011719 14.28125 -23.089844 14.085938 -23.289062 C 13.886719 -23.449219 13.808594 -23.6875 13.808594 -24.003906 L 13.808594 -29.953125 C 13.808594 -30.230469 13.886719 -30.46875 14.085938 -30.667969 C 14.28125 -30.828125 14.519531 -30.945312 14.796875 -30.945312 L 26.464844 -30.945312 C 27.414062 -30.945312 28.25 -30.589844 28.960938 -29.953125 C 29.121094 -29.757812 29.359375 -29.714844 29.597656 -29.835938 C 29.835938 -29.914062 29.953125 -30.113281 29.953125 -30.390625 L 29.953125 -39.277344 C 29.953125 -39.515625 29.796875 -39.714844 29.558594 -39.832031 C 29.320312 -39.914062 29.082031 -39.875 28.882812 -39.714844 Z M 28.882812 -39.714844 "/></g></g></g><g fill="#ffc1b2" fill-opacity="0.502"><g transform="translate(303.69253, 199.840592)"><g><path d="M 28.84375 -40.390625 C 28.128906 -39.753906 27.335938 -39.4375 26.382812 -39.4375 L 5.394531 -39.4375 C 5.117188 -39.4375 4.917969 -39.316406 4.839844 -39.078125 C 4.722656 -38.84375 4.722656 -38.644531 4.878906 -38.445312 L 4.917969 -38.40625 C 5.554688 -37.691406 5.871094 -36.859375 5.871094 -35.945312 L 5.871094 -3.453125 C 5.871094 -2.5 5.554688 -1.707031 4.917969 -0.992188 L 4.878906 -0.953125 C 4.722656 -0.714844 4.722656 -0.515625 4.839844 -0.316406 C 4.917969 -0.078125 5.117188 0 5.394531 0 L 14.164062 0 C 14.402344 0 14.601562 -0.078125 14.71875 -0.316406 C 14.796875 -0.515625 14.796875 -0.714844 14.679688 -0.953125 C 14.046875 -1.667969 13.726562 -2.460938 13.726562 -3.410156 L 13.726562 -14.957031 C 13.726562 -15.15625 13.808594 -15.355469 13.964844 -15.511719 C 14.125 -15.671875 14.324219 -15.789062 14.5625 -15.789062 L 18.25 -15.789062 C 19.203125 -15.789062 19.996094 -15.433594 20.671875 -14.796875 L 20.710938 -14.796875 C 20.910156 -14.640625 21.105469 -14.640625 21.34375 -14.757812 C 21.582031 -14.839844 21.703125 -15.035156 21.703125 -15.316406 L 21.703125 -24.082031 C 21.703125 -24.320312 21.582031 -24.519531 21.34375 -24.636719 C 21.105469 -24.757812 20.910156 -24.757812 20.710938 -24.597656 C 19.996094 -23.964844 19.203125 -23.644531 18.25 -23.644531 L 14.5625 -23.644531 C 14.324219 -23.644531 14.125 -23.726562 13.964844 -23.882812 C 13.808594 -24.042969 13.726562 -24.242188 13.726562 -24.480469 L 13.726562 -30.707031 C 13.726562 -30.945312 13.808594 -31.144531 13.964844 -31.304688 C 14.125 -31.460938 14.324219 -31.542969 14.5625 -31.542969 L 26.382812 -31.542969 C 27.335938 -31.542969 28.128906 -31.222656 28.84375 -30.589844 C 29.042969 -30.429688 29.242188 -30.429688 29.480469 -30.550781 C 29.714844 -30.628906 29.835938 -30.828125 29.835938 -31.105469 L 29.835938 -39.875 C 29.835938 -40.113281 29.714844 -40.308594 29.480469 -40.429688 C 29.242188 -40.507812 29.042969 -40.507812 28.84375 -40.390625 Z M 28.84375 -40.390625 "/></g></g></g><g fill="#eda332" fill-opacity="1"><g transform="translate(38.015627, 200.286316)"><g><path d="M 34.476562 -0.992188 L 34.398438 -1.03125 C 33.761719 -1.707031 33.484375 -2.5 33.484375 -3.453125 L 33.484375 -35.984375 C 33.484375 -36.898438 33.761719 -37.691406 34.398438 -38.40625 L 34.476562 -38.445312 C 34.597656 -38.644531 34.597656 -38.84375 34.476562 -39.078125 C 34.359375 -39.316406 34.199219 -39.4375 33.960938 -39.4375 L 25.152344 -39.4375 C 24.914062 -39.4375 24.71875 -39.316406 24.597656 -39.078125 C 24.480469 -38.84375 24.480469 -38.644531 24.636719 -38.445312 L 24.679688 -38.445312 C 25.3125 -37.730469 25.628906 -36.898438 25.628906 -36.023438 L 25.628906 -24.957031 C 25.628906 -24.558594 25.472656 -24.242188 25.234375 -24.003906 C 24.957031 -23.765625 24.636719 -23.644531 24.28125 -23.644531 L 15.078125 -23.644531 C 14.679688 -23.644531 14.363281 -23.765625 14.125 -24.003906 C 13.847656 -24.242188 13.726562 -24.558594 13.726562 -24.957031 L 13.726562 -36.066406 C 13.726562 -36.9375 14.046875 -37.730469 14.679688 -38.445312 C 14.796875 -38.644531 14.796875 -38.84375 14.71875 -39.078125 C 14.601562 -39.316406 14.402344 -39.4375 14.164062 -39.4375 L 5.394531 -39.4375 C 5.117188 -39.4375 4.917969 -39.316406 4.839844 -39.078125 C 4.722656 -38.84375 4.722656 -38.644531 4.878906 -38.445312 L 4.960938 -38.367188 C 5.554688 -37.691406 5.871094 -36.898438 5.871094 -35.984375 L 5.871094 -3.492188 C 5.871094 -2.539062 5.554688 -1.707031 4.960938 -1.070312 L 4.878906 -0.992188 C 4.722656 -0.753906 4.722656 -0.554688 4.839844 -0.316406 C 4.917969 -0.078125 5.117188 0 5.394531 0 L 14.164062 0 C 14.402344 0 14.601562 -0.078125 14.71875 -0.316406 C 14.796875 -0.554688 14.796875 -0.753906 14.679688 -0.992188 C 14.046875 -1.707031 13.726562 -2.5 13.726562 -3.410156 L 13.726562 -14.480469 C 13.726562 -14.839844 13.847656 -15.15625 14.125 -15.394531 C 14.363281 -15.632812 14.679688 -15.789062 15.078125 -15.789062 L 24.28125 -15.789062 C 24.636719 -15.789062 24.957031 -15.632812 25.234375 -15.394531 C 25.472656 -15.15625 25.628906 -14.839844 25.628906 -14.480469 L 25.628906 -3.410156 C 25.628906 -2.5 25.3125 -1.707031 24.679688 -1.03125 L 24.636719 -0.992188 C 24.480469 -0.753906 24.480469 -0.554688 24.597656 -0.316406 C 24.71875 -0.078125 24.914062 0 25.152344 0 L 33.960938 0 C 34.199219 0 34.359375 -0.078125 34.476562 -0.316406 C 34.597656 -0.554688 34.597656 -0.753906 34.476562 -0.992188 Z M 34.476562 -0.992188 "/></g></g></g><g fill="#eda332" fill-opacity="1"><g transform="translate(77.366191, 200.286316)"><g><path d="M 29.996094 -33.246094 C 28.488281 -35.230469 26.703125 -36.738281 24.71875 -37.808594 C 22.695312 -38.84375 20.589844 -39.398438 18.371094 -39.398438 C 16.148438 -39.398438 14.003906 -38.84375 11.980469 -37.808594 C 9.957031 -36.738281 8.210938 -35.230469 6.703125 -33.246094 C 5.277344 -31.382812 4.207031 -29.28125 3.492188 -26.980469 C 2.738281 -24.679688 2.378906 -22.21875 2.378906 -19.679688 C 2.378906 -17.140625 2.738281 -14.679688 3.492188 -12.378906 C 4.207031 -10.039062 5.277344 -7.976562 6.703125 -6.148438 C 8.210938 -4.164062 9.957031 -2.617188 11.980469 -1.585938 C 14.003906 -0.515625 16.148438 0 18.371094 0 C 20.589844 0 22.695312 -0.515625 24.71875 -1.585938 C 26.703125 -2.617188 28.488281 -4.164062 29.996094 -6.148438 C 31.421875 -7.976562 32.492188 -10.039062 33.246094 -12.378906 C 33.960938 -14.679688 34.359375 -17.140625 34.359375 -19.679688 C 34.359375 -22.21875 33.960938 -24.679688 33.246094 -26.980469 C 32.492188 -29.28125 31.421875 -31.382812 29.996094 -33.246094 Z M 18.371094 -7.855469 C 17.257812 -7.855469 16.1875 -8.171875 15.234375 -8.808594 C 14.242188 -9.441406 13.371094 -10.277344 12.65625 -11.347656 C 11.902344 -12.417969 11.308594 -13.6875 10.871094 -15.117188 C 10.433594 -16.542969 10.234375 -18.050781 10.234375 -19.679688 C 10.234375 -21.265625 10.433594 -22.8125 10.871094 -24.242188 C 11.308594 -25.667969 11.902344 -26.898438 12.65625 -28.011719 C 13.371094 -29.082031 14.242188 -29.953125 15.234375 -30.589844 C 16.1875 -31.222656 17.257812 -31.542969 18.371094 -31.542969 C 19.480469 -31.542969 20.511719 -31.222656 21.503906 -30.589844 C 22.457031 -29.953125 23.328125 -29.082031 24.042969 -28.011719 C 24.757812 -26.898438 25.351562 -25.667969 25.789062 -24.242188 C 26.226562 -22.8125 26.464844 -21.265625 26.464844 -19.679688 C 26.464844 -18.050781 26.226562 -16.542969 25.789062 -15.117188 C 25.351562 -13.6875 24.757812 -12.417969 24.042969 -11.347656 C 23.328125 -10.277344 22.457031 -9.441406 21.503906 -8.808594 C 20.511719 -8.171875 19.480469 -7.855469 18.371094 -7.855469 Z M 18.371094 -7.855469 "/></g></g></g><g fill="#eda332" fill-opacity="1"><g transform="translate(114.098668, 200.286316)"><g><path d="M 42.96875 -3.332031 L 42.96875 -36.105469 C 42.96875 -36.976562 43.246094 -37.769531 43.878906 -38.445312 C 44.039062 -38.644531 44.078125 -38.84375 44 -39.078125 C 43.878906 -39.316406 43.722656 -39.4375 43.484375 -39.4375 L 35.113281 -39.4375 L 35.074219 -39.398438 L 35.074219 -39.4375 L 34 -39.4375 C 33.722656 -39.4375 33.523438 -39.316406 33.445312 -39.078125 C 33.328125 -38.84375 33.328125 -38.644531 33.484375 -38.445312 C 33.644531 -38.207031 33.605469 -38.046875 33.445312 -37.929688 L 25.273438 -30.390625 C 24.996094 -30.152344 24.679688 -30.074219 24.359375 -30.074219 C 24.042969 -30.074219 23.765625 -30.152344 23.527344 -30.390625 L 15.234375 -38.007812 C 15.078125 -38.128906 15.078125 -38.246094 15.234375 -38.40625 C 15.394531 -38.605469 15.433594 -38.84375 15.355469 -39.078125 C 15.234375 -39.316406 15.035156 -39.4375 14.757812 -39.4375 L 5.394531 -39.4375 C 5.117188 -39.4375 4.917969 -39.316406 4.839844 -39.078125 C 4.722656 -38.84375 4.722656 -38.644531 4.878906 -38.445312 L 4.917969 -38.40625 C 5.515625 -37.730469 5.832031 -36.9375 5.832031 -36.066406 L 5.832031 -3.371094 C 5.832031 -2.460938 5.515625 -1.667969 4.917969 -1.03125 L 4.878906 -0.992188 C 4.722656 -0.753906 4.722656 -0.554688 4.839844 -0.316406 C 4.917969 -0.078125 5.117188 0 5.394531 0 L 14.164062 0 C 14.402344 0 14.601562 -0.078125 14.71875 -0.316406 C 14.796875 -0.554688 14.796875 -0.753906 14.679688 -0.992188 L 14.601562 -1.070312 C 13.964844 -1.707031 13.6875 -2.5 13.6875 -3.410156 L 13.6875 -27.457031 C 13.6875 -27.691406 13.765625 -27.851562 14.003906 -27.929688 C 14.242188 -28.011719 14.441406 -28.011719 14.640625 -27.851562 L 23.527344 -19.597656 C 23.765625 -19.363281 24.042969 -19.242188 24.398438 -19.242188 C 24.71875 -19.242188 25.035156 -19.363281 25.273438 -19.597656 L 34.160156 -27.851562 C 34.320312 -28.011719 34.515625 -28.011719 34.753906 -27.929688 C 34.992188 -27.851562 35.113281 -27.691406 35.113281 -27.457031 L 35.113281 -3.453125 C 35.113281 -2.578125 34.796875 -1.785156 34.160156 -1.109375 L 34.082031 -0.992188 C 33.921875 -0.753906 33.921875 -0.554688 34.042969 -0.316406 C 34.121094 -0.078125 34.320312 0 34.597656 0 L 43.484375 0 C 43.722656 0 43.878906 -0.078125 44 -0.316406 C 44.078125 -0.554688 44.039062 -0.753906 43.878906 -0.992188 C 43.246094 -1.625 42.96875 -2.421875 42.96875 -3.332031 Z M 42.96875 -3.332031 "/></g></g></g><g fill="#eda332" fill-opacity="1"><g transform="translate(162.890184, 200.286316)"><g><path d="M 28.882812 -39.714844 C 28.207031 -39.078125 27.414062 -38.800781 26.542969 -38.800781 L 5.394531 -38.800781 C 5.117188 -38.800781 4.917969 -38.683594 4.839844 -38.445312 C 4.722656 -38.207031 4.722656 -38.007812 4.878906 -37.808594 L 5 -37.691406 C 5.632812 -36.976562 5.953125 -36.144531 5.953125 -35.191406 L 5.953125 -2.976562 C 5.953125 -2.5 5.871094 -2.0625 5.714844 -1.625 C 5.554688 -1.191406 5.316406 -0.792969 5 -0.476562 L 4.878906 -0.355469 C 4.722656 -0.117188 4.722656 0.078125 4.839844 0.316406 C 4.917969 0.554688 5.117188 0.636719 5.394531 0.636719 L 26.542969 0.636719 C 27.414062 0.636719 28.207031 0.953125 28.882812 1.546875 C 29.082031 1.746094 29.320312 1.785156 29.558594 1.667969 C 29.796875 1.585938 29.953125 1.386719 29.953125 1.070312 L 29.953125 -7.777344 C 29.953125 -8.015625 29.835938 -8.210938 29.597656 -8.332031 C 29.359375 -8.410156 29.121094 -8.371094 28.960938 -8.210938 C 28.25 -7.539062 27.414062 -7.222656 26.464844 -7.222656 L 14.796875 -7.222656 C 14.519531 -7.222656 14.28125 -7.300781 14.085938 -7.5 C 13.886719 -7.65625 13.808594 -7.894531 13.808594 -8.210938 L 13.808594 -14.164062 C 13.808594 -14.441406 13.886719 -14.679688 14.085938 -14.878906 C 14.28125 -15.035156 14.519531 -15.15625 14.796875 -15.15625 L 18.289062 -15.15625 C 19.242188 -15.15625 20.074219 -14.796875 20.789062 -14.164062 C 20.988281 -14.003906 21.1875 -14.003906 21.425781 -14.125 C 21.664062 -14.242188 21.78125 -14.441406 21.78125 -14.679688 L 21.78125 -23.488281 C 21.78125 -23.726562 21.664062 -23.882812 21.425781 -24.003906 C 21.1875 -24.121094 20.988281 -24.121094 20.789062 -24.003906 C 20.074219 -23.328125 19.242188 -23.011719 18.289062 -23.011719 L 14.796875 -23.011719 C 14.519531 -23.011719 14.28125 -23.089844 14.085938 -23.289062 C 13.886719 -23.449219 13.808594 -23.6875 13.808594 -24.003906 L 13.808594 -29.953125 C 13.808594 -30.230469 13.886719 -30.46875 14.085938 -30.667969 C 14.28125 -30.828125 14.519531 -30.945312 14.796875 -30.945312 L 26.464844 -30.945312 C 27.414062 -30.945312 28.25 -30.589844 28.960938 -29.953125 C 29.121094 -29.757812 29.359375 -29.714844 29.597656 -29.835938 C 29.835938 -29.914062 29.953125 -30.113281 29.953125 -30.390625 L 29.953125 -39.277344 C 29.953125 -39.515625 29.796875 -39.714844 29.558594 -39.832031 C 29.320312 -39.914062 29.082031 -39.875 28.882812 -39.714844 Z M 28.882812 -39.714844 "/></g></g></g><g fill="#eda332" fill-opacity="1"><g transform="translate(197.599597, 200.286316)"><g><path d="M 27.257812 -41.421875 C 26.582031 -40.785156 25.789062 -40.507812 24.914062 -40.507812 L 21.027344 -40.507812 C 18.132812 -40.507812 15.511719 -39.953125 13.132812 -38.882812 C 10.75 -37.808594 8.726562 -36.222656 6.984375 -34.160156 C 5.476562 -32.335938 4.324219 -30.3125 3.53125 -28.011719 C 2.738281 -25.710938 2.378906 -23.328125 2.378906 -20.789062 C 2.378906 -18.328125 2.777344 -15.910156 3.570312 -13.570312 C 4.363281 -11.1875 5.515625 -9.085938 7.101562 -7.261719 C 8.6875 -5.394531 10.632812 -3.886719 12.933594 -2.777344 C 15.234375 -1.625 17.933594 -1.070312 21.027344 -1.070312 L 24.914062 -1.070312 C 25.789062 -1.070312 26.582031 -0.753906 27.257812 -0.160156 C 27.457031 0.0390625 27.691406 0.078125 27.929688 -0.0390625 C 28.167969 -0.117188 28.289062 -0.316406 28.289062 -0.636719 L 28.289062 -9.480469 C 28.289062 -9.71875 28.167969 -9.917969 27.929688 -10.039062 C 27.691406 -10.117188 27.496094 -10.078125 27.335938 -9.917969 C 26.582031 -9.246094 25.75 -8.925781 24.835938 -8.925781 L 21.027344 -8.925781 C 18.886719 -8.925781 17.101562 -9.324219 15.710938 -10.15625 C 14.324219 -10.949219 13.210938 -11.980469 12.417969 -13.210938 C 11.625 -14.402344 11.03125 -15.710938 10.710938 -17.058594 C 10.394531 -18.410156 10.234375 -19.679688 10.234375 -20.789062 C 10.234375 -22.375 10.472656 -23.882812 10.949219 -25.351562 C 11.425781 -26.78125 12.140625 -28.050781 13.011719 -29.121094 C 14.957031 -31.460938 17.617188 -32.652344 21.027344 -32.652344 L 24.835938 -32.652344 C 25.75 -32.652344 26.582031 -32.296875 27.335938 -31.660156 C 27.496094 -31.460938 27.691406 -31.421875 27.929688 -31.542969 C 28.167969 -31.621094 28.289062 -31.820312 28.289062 -32.097656 L 28.289062 -40.984375 C 28.289062 -41.222656 28.167969 -41.421875 27.929688 -41.539062 C 27.691406 -41.617188 27.457031 -41.578125 27.257812 -41.421875 Z M 27.257812 -41.421875 "/></g></g></g><g fill="#eda332" fill-opacity="1"><g transform="translate(230.682622, 200.286316)"><g><path d="M 34.476562 -0.992188 L 34.398438 -1.03125 C 33.761719 -1.707031 33.484375 -2.5 33.484375 -3.453125 L 33.484375 -35.984375 C 33.484375 -36.898438 33.761719 -37.691406 34.398438 -38.40625 L 34.476562 -38.445312 C 34.597656 -38.644531 34.597656 -38.84375 34.476562 -39.078125 C 34.359375 -39.316406 34.199219 -39.4375 33.960938 -39.4375 L 25.152344 -39.4375 C 24.914062 -39.4375 24.71875 -39.316406 24.597656 -39.078125 C 24.480469 -38.84375 24.480469 -38.644531 24.636719 -38.445312 L 24.679688 -38.445312 C 25.3125 -37.730469 25.628906 -36.898438 25.628906 -36.023438 L 25.628906 -24.957031 C 25.628906 -24.558594 25.472656 -24.242188 25.234375 -24.003906 C 24.957031 -23.765625 24.636719 -23.644531 24.28125 -23.644531 L 15.078125 -23.644531 C 14.679688 -23.644531 14.363281 -23.765625 14.125 -24.003906 C 13.847656 -24.242188 13.726562 -24.558594 13.726562 -24.957031 L 13.726562 -36.066406 C 13.726562 -36.9375 14.046875 -37.730469 14.679688 -38.445312 C 14.796875 -38.644531 14.796875 -38.84375 14.71875 -39.078125 C 14.601562 -39.316406 14.402344 -39.4375 14.164062 -39.4375 L 5.394531 -39.4375 C 5.117188 -39.4375 4.917969 -39.316406 4.839844 -39.078125 C 4.722656 -38.84375 4.722656 -38.644531 4.878906 -38.445312 L 4.960938 -38.367188 C 5.554688 -37.691406 5.871094 -36.898438 5.871094 -35.984375 L 5.871094 -3.492188 C 5.871094 -2.539062 5.554688 -1.707031 4.960938 -1.070312 L 4.878906 -0.992188 C 4.722656 -0.753906 4.722656 -0.554688 4.839844 -0.316406 C 4.917969 -0.078125 5.117188 0 5.394531 0 L 14.164062 0 C 14.402344 0 14.601562 -0.078125 14.71875 -0.316406 C 14.796875 -0.554688 14.796875 -0.753906 14.679688 -0.992188 C 14.046875 -1.707031 13.726562 -2.5 13.726562 -3.410156 L 13.726562 -14.480469 C 13.726562 -14.839844 13.847656 -15.15625 14.125 -15.394531 C 14.363281 -15.632812 14.679688 -15.789062 15.078125 -15.789062 L 24.28125 -15.789062 C 24.636719 -15.789062 24.957031 -15.632812 25.234375 -15.394531 C 25.472656 -15.15625 25.628906 -14.839844 25.628906 -14.480469 L 25.628906 -3.410156 C 25.628906 -2.5 25.3125 -1.707031 24.679688 -1.03125 L 24.636719 -0.992188 C 24.480469 -0.753906 24.480469 -0.554688 24.597656 -0.316406 C 24.71875 -0.078125 24.914062 0 25.152344 0 L 33.960938 0 C 34.199219 0 34.359375 -0.078125 34.476562 -0.316406 C 34.597656 -0.554688 34.597656 -0.753906 34.476562 -0.992188 Z M 34.476562 -0.992188 "/></g></g></g><g fill="#eda332" fill-opacity="1"><g transform="translate(270.033175, 200.286316)"><g><path d="M 28.882812 -39.714844 C 28.207031 -39.078125 27.414062 -38.800781 26.542969 -38.800781 L 5.394531 -38.800781 C 5.117188 -38.800781 4.917969 -38.683594 4.839844 -38.445312 C 4.722656 -38.207031 4.722656 -38.007812 4.878906 -37.808594 L 5 -37.691406 C 5.632812 -36.976562 5.953125 -36.144531 5.953125 -35.191406 L 5.953125 -2.976562 C 5.953125 -2.5 5.871094 -2.0625 5.714844 -1.625 C 5.554688 -1.191406 5.316406 -0.792969 5 -0.476562 L 4.878906 -0.355469 C 4.722656 -0.117188 4.722656 0.078125 4.839844 0.316406 C 4.917969 0.554688 5.117188 0.636719 5.394531 0.636719 L 26.542969 0.636719 C 27.414062 0.636719 28.207031 0.953125 28.882812 1.546875 C 29.082031 1.746094 29.320312 1.785156 29.558594 1.667969 C 29.796875 1.585938 29.953125 1.386719 29.953125 1.070312 L 29.953125 -7.777344 C 29.953125 -8.015625 29.835938 -8.210938 29.597656 -8.332031 C 29.359375 -8.410156 29.121094 -8.371094 28.960938 -8.210938 C 28.25 -7.539062 27.414062 -7.222656 26.464844 -7.222656 L 14.796875 -7.222656 C 14.519531 -7.222656 14.28125 -7.300781 14.085938 -7.5 C 13.886719 -7.65625 13.808594 -7.894531 13.808594 -8.210938 L 13.808594 -14.164062 C 13.808594 -14.441406 13.886719 -14.679688 14.085938 -14.878906 C 14.28125 -15.035156 14.519531 -15.15625 14.796875 -15.15625 L 18.289062 -15.15625 C 19.242188 -15.15625 20.074219 -14.796875 20.789062 -14.164062 C 20.988281 -14.003906 21.1875 -14.003906 21.425781 -14.125 C 21.664062 -14.242188 21.78125 -14.441406 21.78125 -14.679688 L 21.78125 -23.488281 C 21.78125 -23.726562 21.664062 -23.882812 21.425781 -24.003906 C 21.1875 -24.121094 20.988281 -24.121094 20.789062 -24.003906 C 20.074219 -23.328125 19.242188 -23.011719 18.289062 -23.011719 L 14.796875 -23.011719 C 14.519531 -23.011719 14.28125 -23.089844 14.085938 -23.289062 C 13.886719 -23.449219 13.808594 -23.6875 13.808594 -24.003906 L 13.808594 -29.953125 C 13.808594 -30.230469 13.886719 -30.46875 14.085938 -30.667969 C 14.28125 -30.828125 14.519531 -30.945312 14.796875 -30.945312 L 26.464844 -30.945312 C 27.414062 -30.945312 28.25 -30.589844 28.960938 -29.953125 C 29.121094 -29.757812 29.359375 -29.714844 29.597656 -29.835938 C 29.835938 -29.914062 29.953125 -30.113281 29.953125 -30.390625 L 29.953125 -39.277344 C 29.953125 -39.515625 29.796875 -39.714844 29.558594 -39.832031 C 29.320312 -39.914062 29.082031 -39.875 28.882812 -39.714844 Z M 28.882812 -39.714844 "/></g></g></g><g fill="#eda332" fill-opacity="1"><g transform="translate(304.7426, 200.286316)"><g><path d="M 28.84375 -40.390625 C 28.128906 -39.753906 27.335938 -39.4375 26.382812 -39.4375 L 5.394531 -39.4375 C 5.117188 -39.4375 4.917969 -39.316406 4.839844 -39.078125 C 4.722656 -38.84375 4.722656 -38.644531 4.878906 -38.445312 L 4.917969 -38.40625 C 5.554688 -37.691406 5.871094 -36.859375 5.871094 -35.945312 L 5.871094 -3.453125 C 5.871094 -2.5 5.554688 -1.707031 4.917969 -0.992188 L 4.878906 -0.953125 C 4.722656 -0.714844 4.722656 -0.515625 4.839844 -0.316406 C 4.917969 -0.078125 5.117188 0 5.394531 0 L 14.164062 0 C 14.402344 0 14.601562 -0.078125 14.71875 -0.316406 C 14.796875 -0.515625 14.796875 -0.714844 14.679688 -0.953125 C 14.046875 -1.667969 13.726562 -2.460938 13.726562 -3.410156 L 13.726562 -14.957031 C 13.726562 -15.15625 13.808594 -15.355469 13.964844 -15.511719 C 14.125 -15.671875 14.324219 -15.789062 14.5625 -15.789062 L 18.25 -15.789062 C 19.203125 -15.789062 19.996094 -15.433594 20.671875 -14.796875 L 20.710938 -14.796875 C 20.910156 -14.640625 21.105469 -14.640625 21.34375 -14.757812 C 21.582031 -14.839844 21.703125 -15.035156 21.703125 -15.316406 L 21.703125 -24.082031 C 21.703125 -24.320312 21.582031 -24.519531 21.34375 -24.636719 C 21.105469 -24.757812 20.910156 -24.757812 20.710938 -24.597656 C 19.996094 -23.964844 19.203125 -23.644531 18.25 -23.644531 L 14.5625 -23.644531 C 14.324219 -23.644531 14.125 -23.726562 13.964844 -23.882812 C 13.808594 -24.042969 13.726562 -24.242188 13.726562 -24.480469 L 13.726562 -30.707031 C 13.726562 -30.945312 13.808594 -31.144531 13.964844 -31.304688 C 14.125 -31.460938 14.324219 -31.542969 14.5625 -31.542969 L 26.382812 -31.542969 C 27.335938 -31.542969 28.128906 -31.222656 28.84375 -30.589844 C 29.042969 -30.429688 29.242188 -30.429688 29.480469 -30.550781 C 29.714844 -30.628906 29.835938 -30.828125 29.835938 -31.105469 L 29.835938 -39.875 C 29.835938 -40.113281 29.714844 -40.308594 29.480469 -40.429688 C 29.242188 -40.507812 29.042969 -40.507812 28.84375 -40.390625 Z M 28.84375 -40.390625 "/></g></g></g></svg>