<svg xmlns="http://www.w3.org/2000/svg" xmlns:xlink="http://www.w3.org/1999/xlink" width="500" zoomAndPan="magnify" viewBox="0 0 375 374.999991" height="500" preserveAspectRatio="xMidYMid meet" version="1.0"><defs><g/></defs><rect x="-37.5" width="450" fill="#ffffff" y="-37.499999" height="449.999989" fill-opacity="1"/><rect x="-37.5" width="450" fill="#ffffff" y="-37.499999" height="449.999989" fill-opacity="1"/><g fill="#ff00ff" fill-opacity="1"><g transform="translate(5.694122, 107.124204)"><g><path d="M 16.5625 0 L 6.6875 0 C 5.882812 0 5.300781 -0.175781 4.9375 -0.53125 C 4.570312 -0.894531 4.390625 -1.484375 4.390625 -2.296875 L 4.390625 -43.5625 C 4.390625 -44.363281 4.570312 -44.945312 4.9375 -45.3125 C 5.300781 -45.675781 5.882812 -45.859375 6.6875 -45.859375 L 16.5625 -45.859375 C 17.363281 -45.859375 17.941406 -45.675781 18.296875 -45.3125 C 18.660156 -44.945312 18.84375 -44.363281 18.84375 -43.5625 L 18.84375 -29.734375 L 29.484375 -29.734375 L 29.484375 -43.5625 C 29.484375 -44.363281 29.660156 -44.945312 30.015625 -45.3125 C 30.378906 -45.675781 30.96875 -45.859375 31.78125 -45.859375 L 41.65625 -45.859375 C 42.457031 -45.859375 43.035156 -45.675781 43.390625 -45.3125 C 43.753906 -44.945312 43.9375 -44.363281 43.9375 -43.5625 L 43.9375 -2.296875 C 43.9375 -1.484375 43.753906 -0.894531 43.390625 -0.53125 C 43.035156 -0.175781 42.457031 0 41.65625 0 L 31.78125 0 C 30.96875 0 30.378906 -0.175781 30.015625 -0.53125 C 29.660156 -0.894531 29.484375 -1.484375 29.484375 -2.296875 L 29.484375 -16.4375 L 18.84375 -16.4375 L 18.84375 -2.296875 C 18.84375 -1.484375 18.660156 -0.894531 18.296875 -0.53125 C 17.941406 -0.175781 17.363281 0 16.5625 0 Z M 16.5625 0 "/></g></g></g><g fill="#ff00ff" fill-opacity="1"><g transform="translate(54.02705, 107.124204)"><g><path d="M 43.25 -12.03125 C 43.25 -10.082031 42.960938 -8.3125 42.390625 -6.71875 C 41.816406 -5.125 40.796875 -3.765625 39.328125 -2.640625 C 37.859375 -1.515625 35.835938 -0.632812 33.265625 0 C 30.703125 0.632812 27.445312 0.953125 23.5 0.953125 C 19.550781 0.953125 16.28125 0.632812 13.6875 0 C 11.101562 -0.632812 9.078125 -1.515625 7.609375 -2.640625 C 6.140625 -3.765625 5.117188 -5.125 4.546875 -6.71875 C 3.972656 -8.3125 3.6875 -10.082031 3.6875 -12.03125 L 3.6875 -33.75 C 3.6875 -35.707031 3.972656 -37.476562 4.546875 -39.0625 C 5.117188 -40.65625 6.140625 -42.023438 7.609375 -43.171875 C 9.078125 -44.328125 11.101562 -45.222656 13.6875 -45.859375 C 16.28125 -46.492188 19.550781 -46.8125 23.5 -46.8125 C 27.445312 -46.8125 30.703125 -46.492188 33.265625 -45.859375 C 35.835938 -45.222656 37.859375 -44.328125 39.328125 -43.171875 C 40.796875 -42.023438 41.816406 -40.65625 42.390625 -39.0625 C 42.960938 -37.476562 43.25 -35.707031 43.25 -33.75 Z M 18.15625 -14.328125 C 18.15625 -13.484375 18.472656 -12.773438 19.109375 -12.203125 C 19.742188 -11.628906 21.207031 -11.34375 23.5 -11.34375 C 25.789062 -11.34375 27.253906 -11.628906 27.890625 -12.203125 C 28.523438 -12.773438 28.84375 -13.484375 28.84375 -14.328125 L 28.84375 -31.46875 C 28.84375 -32.269531 28.523438 -32.957031 27.890625 -33.53125 C 27.253906 -34.101562 25.789062 -34.390625 23.5 -34.390625 C 21.207031 -34.390625 19.742188 -34.101562 19.109375 -33.53125 C 18.472656 -32.957031 18.15625 -32.269531 18.15625 -31.46875 Z M 18.15625 -14.328125 "/></g></g></g><g fill="#ff00ff" fill-opacity="1"><g transform="translate(100.959028, 107.124204)"><g><path d="M 16.171875 0 L 6.6875 0 C 5.882812 0 5.300781 -0.175781 4.9375 -0.53125 C 4.570312 -0.894531 4.390625 -1.484375 4.390625 -2.296875 L 4.390625 -43.5625 C 4.390625 -44.363281 4.570312 -44.945312 4.9375 -45.3125 C 5.300781 -45.675781 5.882812 -45.859375 6.6875 -45.859375 L 16.9375 -45.859375 C 17.613281 -45.859375 18.175781 -45.707031 18.625 -45.40625 C 19.070312 -45.113281 19.488281 -44.625 19.875 -43.9375 L 25.609375 -33.5625 C 25.816406 -33.175781 25.992188 -32.898438 26.140625 -32.734375 C 26.285156 -32.566406 26.488281 -32.484375 26.75 -32.484375 L 27.328125 -32.484375 C 27.578125 -32.484375 27.773438 -32.566406 27.921875 -32.734375 C 28.078125 -32.898438 28.257812 -33.175781 28.46875 -33.5625 L 34.140625 -43.9375 C 34.515625 -44.625 34.925781 -45.113281 35.375 -45.40625 C 35.820312 -45.707031 36.382812 -45.859375 37.0625 -45.859375 L 47.390625 -45.859375 C 48.191406 -45.859375 48.769531 -45.675781 49.125 -45.3125 C 49.488281 -44.945312 49.671875 -44.363281 49.671875 -43.5625 L 49.671875 -2.296875 C 49.671875 -1.484375 49.488281 -0.894531 49.125 -0.53125 C 48.769531 -0.175781 48.191406 0 47.390625 0 L 37.578125 0 C 36.765625 0 36.175781 -0.175781 35.8125 -0.53125 C 35.457031 -0.894531 35.28125 -1.484375 35.28125 -2.296875 L 35.28125 -24.703125 L 31.53125 -17.765625 C 31.144531 -17.046875 30.6875 -16.523438 30.15625 -16.203125 C 29.625 -15.890625 28.957031 -15.734375 28.15625 -15.734375 L 25.609375 -15.734375 C 24.796875 -15.734375 24.125 -15.890625 23.59375 -16.203125 C 23.0625 -16.523438 22.609375 -17.046875 22.234375 -17.765625 L 18.46875 -24.703125 L 18.46875 -2.296875 C 18.46875 -1.484375 18.285156 -0.894531 17.921875 -0.53125 C 17.566406 -0.175781 16.984375 0 16.171875 0 Z M 16.171875 0 "/></g></g></g><g fill="#ff00ff" fill-opacity="1"><g transform="translate(155.023134, 107.124204)"><g><path d="M 36.234375 0 L 6.6875 0 C 5.882812 0 5.300781 -0.175781 4.9375 -0.53125 C 4.570312 -0.894531 4.390625 -1.484375 4.390625 -2.296875 L 4.390625 -43.5625 C 4.390625 -44.363281 4.570312 -44.945312 4.9375 -45.3125 C 5.300781 -45.675781 5.882812 -45.859375 6.6875 -45.859375 L 36.234375 -45.859375 C 37.046875 -45.859375 37.628906 -45.675781 37.984375 -45.3125 C 38.347656 -44.945312 38.53125 -44.363281 38.53125 -43.5625 L 38.53125 -36.109375 C 38.53125 -35.304688 38.347656 -34.722656 37.984375 -34.359375 C 37.628906 -33.992188 37.046875 -33.8125 36.234375 -33.8125 L 18.65625 -33.8125 L 18.65625 -28.921875 L 31.078125 -28.921875 C 31.890625 -28.921875 32.472656 -28.738281 32.828125 -28.375 C 33.191406 -28.007812 33.375 -27.425781 33.375 -26.625 L 33.375 -19.8125 C 33.375 -19 33.191406 -18.410156 32.828125 -18.046875 C 32.472656 -17.691406 31.890625 -17.515625 31.078125 -17.515625 L 18.65625 -17.515625 L 18.65625 -12.03125 L 36.234375 -12.03125 C 37.046875 -12.03125 37.628906 -11.847656 37.984375 -11.484375 C 38.347656 -11.128906 38.53125 -10.550781 38.53125 -9.75 L 38.53125 -2.296875 C 38.53125 -1.484375 38.347656 -0.894531 37.984375 -0.53125 C 37.628906 -0.175781 37.046875 0 36.234375 0 Z M 36.234375 0 "/></g></g></g><g fill="#ff00ff" fill-opacity="1"><g transform="translate(196.669692, 107.124204)"><g><path d="M 34.90625 0 L 19.359375 0 C 14.054688 0 10.117188 -1.0625 7.546875 -3.1875 C 4.972656 -5.3125 3.6875 -8.582031 3.6875 -13 L 3.6875 -32.796875 C 3.6875 -37.210938 4.972656 -40.492188 7.546875 -42.640625 C 10.117188 -44.785156 14.054688 -45.859375 19.359375 -45.859375 L 34.90625 -45.859375 C 35.707031 -45.859375 36.285156 -45.675781 36.640625 -45.3125 C 37.003906 -44.945312 37.1875 -44.363281 37.1875 -43.5625 L 37.1875 -35.859375 C 37.1875 -35.046875 37.003906 -34.457031 36.640625 -34.09375 C 36.285156 -33.738281 35.707031 -33.5625 34.90625 -33.5625 L 22.09375 -33.5625 C 20.78125 -33.5625 19.804688 -33.296875 19.171875 -32.765625 C 18.535156 -32.234375 18.21875 -31.4375 18.21875 -30.375 L 18.21875 -15.21875 C 18.21875 -14.15625 18.535156 -13.378906 19.171875 -12.890625 C 19.804688 -12.410156 20.78125 -12.171875 22.09375 -12.171875 L 34.90625 -12.171875 C 35.707031 -12.171875 36.285156 -11.988281 36.640625 -11.625 C 37.003906 -11.257812 37.1875 -10.675781 37.1875 -9.875 L 37.1875 -2.296875 C 37.1875 -1.484375 37.003906 -0.894531 36.640625 -0.53125 C 36.285156 -0.175781 35.707031 0 34.90625 0 Z M 34.90625 0 "/></g></g></g><g fill="#ff00ff" fill-opacity="1"><g transform="translate(236.660576, 107.124204)"><g><path d="M 16.5625 0 L 6.6875 0 C 5.882812 0 5.300781 -0.175781 4.9375 -0.53125 C 4.570312 -0.894531 4.390625 -1.484375 4.390625 -2.296875 L 4.390625 -43.5625 C 4.390625 -44.363281 4.570312 -44.945312 4.9375 -45.3125 C 5.300781 -45.675781 5.882812 -45.859375 6.6875 -45.859375 L 16.5625 -45.859375 C 17.363281 -45.859375 17.941406 -45.675781 18.296875 -45.3125 C 18.660156 -44.945312 18.84375 -44.363281 18.84375 -43.5625 L 18.84375 -29.734375 L 29.484375 -29.734375 L 29.484375 -43.5625 C 29.484375 -44.363281 29.660156 -44.945312 30.015625 -45.3125 C 30.378906 -45.675781 30.96875 -45.859375 31.78125 -45.859375 L 41.65625 -45.859375 C 42.457031 -45.859375 43.035156 -45.675781 43.390625 -45.3125 C 43.753906 -44.945312 43.9375 -44.363281 43.9375 -43.5625 L 43.9375 -2.296875 C 43.9375 -1.484375 43.753906 -0.894531 43.390625 -0.53125 C 43.035156 -0.175781 42.457031 0 41.65625 0 L 31.78125 0 C 30.96875 0 30.378906 -0.175781 30.015625 -0.53125 C 29.660156 -0.894531 29.484375 -1.484375 29.484375 -2.296875 L 29.484375 -16.4375 L 18.84375 -16.4375 L 18.84375 -2.296875 C 18.84375 -1.484375 18.660156 -0.894531 18.296875 -0.53125 C 17.941406 -0.175781 17.363281 0 16.5625 0 Z M 16.5625 0 "/></g></g></g><g fill="#ff00ff" fill-opacity="1"><g transform="translate(284.993505, 107.124204)"><g><path d="M 36.234375 0 L 6.6875 0 C 5.882812 0 5.300781 -0.175781 4.9375 -0.53125 C 4.570312 -0.894531 4.390625 -1.484375 4.390625 -2.296875 L 4.390625 -43.5625 C 4.390625 -44.363281 4.570312 -44.945312 4.9375 -45.3125 C 5.300781 -45.675781 5.882812 -45.859375 6.6875 -45.859375 L 36.234375 -45.859375 C 37.046875 -45.859375 37.628906 -45.675781 37.984375 -45.3125 C 38.347656 -44.945312 38.53125 -44.363281 38.53125 -43.5625 L 38.53125 -36.109375 C 38.53125 -35.304688 38.347656 -34.722656 37.984375 -34.359375 C 37.628906 -33.992188 37.046875 -33.8125 36.234375 -33.8125 L 18.65625 -33.8125 L 18.65625 -28.921875 L 31.078125 -28.921875 C 31.890625 -28.921875 32.472656 -28.738281 32.828125 -28.375 C 33.191406 -28.007812 33.375 -27.425781 33.375 -26.625 L 33.375 -19.8125 C 33.375 -19 33.191406 -18.410156 32.828125 -18.046875 C 32.472656 -17.691406 31.890625 -17.515625 31.078125 -17.515625 L 18.65625 -17.515625 L 18.65625 -12.03125 L 36.234375 -12.03125 C 37.046875 -12.03125 37.628906 -11.847656 37.984375 -11.484375 C 38.347656 -11.128906 38.53125 -10.550781 38.53125 -9.75 L 38.53125 -2.296875 C 38.53125 -1.484375 38.347656 -0.894531 37.984375 -0.53125 C 37.628906 -0.175781 37.046875 0 36.234375 0 Z M 36.234375 0 "/></g></g></g><g fill="#ff00ff" fill-opacity="1"><g transform="translate(326.640063, 107.124204)"><g><path d="M 16.5625 0 L 6.6875 0 C 5.882812 0 5.300781 -0.175781 4.9375 -0.53125 C 4.570312 -0.894531 4.390625 -1.484375 4.390625 -2.296875 L 4.390625 -43.5625 C 4.390625 -44.363281 4.570312 -44.945312 4.9375 -45.3125 C 5.300781 -45.675781 5.882812 -45.859375 6.6875 -45.859375 L 35.09375 -45.859375 C 35.894531 -45.859375 36.476562 -45.675781 36.84375 -45.3125 C 37.207031 -44.945312 37.390625 -44.363281 37.390625 -43.5625 L 37.390625 -35.984375 C 37.390625 -35.171875 37.207031 -34.582031 36.84375 -34.21875 C 36.476562 -33.863281 35.894531 -33.6875 35.09375 -33.6875 L 18.84375 -33.6875 L 18.84375 -27.0625 L 29.9375 -27.0625 C 30.738281 -27.0625 31.316406 -26.878906 31.671875 -26.515625 C 32.035156 -26.160156 32.21875 -25.582031 32.21875 -24.78125 L 32.21875 -17.125 C 32.21875 -16.320312 32.035156 -15.738281 31.671875 -15.375 C 31.316406 -15.019531 30.738281 -14.84375 29.9375 -14.84375 L 18.84375 -14.84375 L 18.84375 -2.296875 C 18.84375 -1.484375 18.660156 -0.894531 18.296875 -0.53125 C 17.941406 -0.175781 17.363281 0 16.5625 0 Z M 16.5625 0 "/></g></g></g><g fill="#00ffff" fill-opacity="1"><g transform="translate(9.012917, 104.029376)"><g><path d="M 16.5625 0 L 6.6875 0 C 5.882812 0 5.300781 -0.175781 4.9375 -0.53125 C 4.570312 -0.894531 4.390625 -1.484375 4.390625 -2.296875 L 4.390625 -43.5625 C 4.390625 -44.363281 4.570312 -44.945312 4.9375 -45.3125 C 5.300781 -45.675781 5.882812 -45.859375 6.6875 -45.859375 L 16.5625 -45.859375 C 17.363281 -45.859375 17.941406 -45.675781 18.296875 -45.3125 C 18.660156 -44.945312 18.84375 -44.363281 18.84375 -43.5625 L 18.84375 -29.734375 L 29.484375 -29.734375 L 29.484375 -43.5625 C 29.484375 -44.363281 29.660156 -44.945312 30.015625 -45.3125 C 30.378906 -45.675781 30.96875 -45.859375 31.78125 -45.859375 L 41.65625 -45.859375 C 42.457031 -45.859375 43.035156 -45.675781 43.390625 -45.3125 C 43.753906 -44.945312 43.9375 -44.363281 43.9375 -43.5625 L 43.9375 -2.296875 C 43.9375 -1.484375 43.753906 -0.894531 43.390625 -0.53125 C 43.035156 -0.175781 42.457031 0 41.65625 0 L 31.78125 0 C 30.96875 0 30.378906 -0.175781 30.015625 -0.53125 C 29.660156 -0.894531 29.484375 -1.484375 29.484375 -2.296875 L 29.484375 -16.4375 L 18.84375 -16.4375 L 18.84375 -2.296875 C 18.84375 -1.484375 18.660156 -0.894531 18.296875 -0.53125 C 17.941406 -0.175781 17.363281 0 16.5625 0 Z M 16.5625 0 "/></g></g></g><g fill="#00ffff" fill-opacity="1"><g transform="translate(57.345846, 104.029376)"><g><path d="M 43.25 -12.03125 C 43.25 -10.082031 42.960938 -8.3125 42.390625 -6.71875 C 41.816406 -5.125 40.796875 -3.765625 39.328125 -2.640625 C 37.859375 -1.515625 35.835938 -0.632812 33.265625 0 C 30.703125 0.632812 27.445312 0.953125 23.5 0.953125 C 19.550781 0.953125 16.28125 0.632812 13.6875 0 C 11.101562 -0.632812 9.078125 -1.515625 7.609375 -2.640625 C 6.140625 -3.765625 5.117188 -5.125 4.546875 -6.71875 C 3.972656 -8.3125 3.6875 -10.082031 3.6875 -12.03125 L 3.6875 -33.75 C 3.6875 -35.707031 3.972656 -37.476562 4.546875 -39.0625 C 5.117188 -40.65625 6.140625 -42.023438 7.609375 -43.171875 C 9.078125 -44.328125 11.101562 -45.222656 13.6875 -45.859375 C 16.28125 -46.492188 19.550781 -46.8125 23.5 -46.8125 C 27.445312 -46.8125 30.703125 -46.492188 33.265625 -45.859375 C 35.835938 -45.222656 37.859375 -44.328125 39.328125 -43.171875 C 40.796875 -42.023438 41.816406 -40.65625 42.390625 -39.0625 C 42.960938 -37.476562 43.25 -35.707031 43.25 -33.75 Z M 18.15625 -14.328125 C 18.15625 -13.484375 18.472656 -12.773438 19.109375 -12.203125 C 19.742188 -11.628906 21.207031 -11.34375 23.5 -11.34375 C 25.789062 -11.34375 27.253906 -11.628906 27.890625 -12.203125 C 28.523438 -12.773438 28.84375 -13.484375 28.84375 -14.328125 L 28.84375 -31.46875 C 28.84375 -32.269531 28.523438 -32.957031 27.890625 -33.53125 C 27.253906 -34.101562 25.789062 -34.390625 23.5 -34.390625 C 21.207031 -34.390625 19.742188 -34.101562 19.109375 -33.53125 C 18.472656 -32.957031 18.15625 -32.269531 18.15625 -31.46875 Z M 18.15625 -14.328125 "/></g></g></g><g fill="#00ffff" fill-opacity="1"><g transform="translate(104.277823, 104.029376)"><g><path d="M 16.171875 0 L 6.6875 0 C 5.882812 0 5.300781 -0.175781 4.9375 -0.53125 C 4.570312 -0.894531 4.390625 -1.484375 4.390625 -2.296875 L 4.390625 -43.5625 C 4.390625 -44.363281 4.570312 -44.945312 4.9375 -45.3125 C 5.300781 -45.675781 5.882812 -45.859375 6.6875 -45.859375 L 16.9375 -45.859375 C 17.613281 -45.859375 18.175781 -45.707031 18.625 -45.40625 C 19.070312 -45.113281 19.488281 -44.625 19.875 -43.9375 L 25.609375 -33.5625 C 25.816406 -33.175781 25.992188 -32.898438 26.140625 -32.734375 C 26.285156 -32.566406 26.488281 -32.484375 26.75 -32.484375 L 27.328125 -32.484375 C 27.578125 -32.484375 27.773438 -32.566406 27.921875 -32.734375 C 28.078125 -32.898438 28.257812 -33.175781 28.46875 -33.5625 L 34.140625 -43.9375 C 34.515625 -44.625 34.925781 -45.113281 35.375 -45.40625 C 35.820312 -45.707031 36.382812 -45.859375 37.0625 -45.859375 L 47.390625 -45.859375 C 48.191406 -45.859375 48.769531 -45.675781 49.125 -45.3125 C 49.488281 -44.945312 49.671875 -44.363281 49.671875 -43.5625 L 49.671875 -2.296875 C 49.671875 -1.484375 49.488281 -0.894531 49.125 -0.53125 C 48.769531 -0.175781 48.191406 0 47.390625 0 L 37.578125 0 C 36.765625 0 36.175781 -0.175781 35.8125 -0.53125 C 35.457031 -0.894531 35.28125 -1.484375 35.28125 -2.296875 L 35.28125 -24.703125 L 31.53125 -17.765625 C 31.144531 -17.046875 30.6875 -16.523438 30.15625 -16.203125 C 29.625 -15.890625 28.957031 -15.734375 28.15625 -15.734375 L 25.609375 -15.734375 C 24.796875 -15.734375 24.125 -15.890625 23.59375 -16.203125 C 23.0625 -16.523438 22.609375 -17.046875 22.234375 -17.765625 L 18.46875 -24.703125 L 18.46875 -2.296875 C 18.46875 -1.484375 18.285156 -0.894531 17.921875 -0.53125 C 17.566406 -0.175781 16.984375 0 16.171875 0 Z M 16.171875 0 "/></g></g></g><g fill="#00ffff" fill-opacity="1"><g transform="translate(158.34193, 104.029376)"><g><path d="M 36.234375 0 L 6.6875 0 C 5.882812 0 5.300781 -0.175781 4.9375 -0.53125 C 4.570312 -0.894531 4.390625 -1.484375 4.390625 -2.296875 L 4.390625 -43.5625 C 4.390625 -44.363281 4.570312 -44.945312 4.9375 -45.3125 C 5.300781 -45.675781 5.882812 -45.859375 6.6875 -45.859375 L 36.234375 -45.859375 C 37.046875 -45.859375 37.628906 -45.675781 37.984375 -45.3125 C 38.347656 -44.945312 38.53125 -44.363281 38.53125 -43.5625 L 38.53125 -36.109375 C 38.53125 -35.304688 38.347656 -34.722656 37.984375 -34.359375 C 37.628906 -33.992188 37.046875 -33.8125 36.234375 -33.8125 L 18.65625 -33.8125 L 18.65625 -28.921875 L 31.078125 -28.921875 C 31.890625 -28.921875 32.472656 -28.738281 32.828125 -28.375 C 33.191406 -28.007812 33.375 -27.425781 33.375 -26.625 L 33.375 -19.8125 C 33.375 -19 33.191406 -18.410156 32.828125 -18.046875 C 32.472656 -17.691406 31.890625 -17.515625 31.078125 -17.515625 L 18.65625 -17.515625 L 18.65625 -12.03125 L 36.234375 -12.03125 C 37.046875 -12.03125 37.628906 -11.847656 37.984375 -11.484375 C 38.347656 -11.128906 38.53125 -10.550781 38.53125 -9.75 L 38.53125 -2.296875 C 38.53125 -1.484375 38.347656 -0.894531 37.984375 -0.53125 C 37.628906 -0.175781 37.046875 0 36.234375 0 Z M 36.234375 0 "/></g></g></g><g fill="#00ffff" fill-opacity="1"><g transform="translate(199.988488, 104.029376)"><g><path d="M 34.90625 0 L 19.359375 0 C 14.054688 0 10.117188 -1.0625 7.546875 -3.1875 C 4.972656 -5.3125 3.6875 -8.582031 3.6875 -13 L 3.6875 -32.796875 C 3.6875 -37.210938 4.972656 -40.492188 7.546875 -42.640625 C 10.117188 -44.785156 14.054688 -45.859375 19.359375 -45.859375 L 34.90625 -45.859375 C 35.707031 -45.859375 36.285156 -45.675781 36.640625 -45.3125 C 37.003906 -44.945312 37.1875 -44.363281 37.1875 -43.5625 L 37.1875 -35.859375 C 37.1875 -35.046875 37.003906 -34.457031 36.640625 -34.09375 C 36.285156 -33.738281 35.707031 -33.5625 34.90625 -33.5625 L 22.09375 -33.5625 C 20.78125 -33.5625 19.804688 -33.296875 19.171875 -32.765625 C 18.535156 -32.234375 18.21875 -31.4375 18.21875 -30.375 L 18.21875 -15.21875 C 18.21875 -14.15625 18.535156 -13.378906 19.171875 -12.890625 C 19.804688 -12.410156 20.78125 -12.171875 22.09375 -12.171875 L 34.90625 -12.171875 C 35.707031 -12.171875 36.285156 -11.988281 36.640625 -11.625 C 37.003906 -11.257812 37.1875 -10.675781 37.1875 -9.875 L 37.1875 -2.296875 C 37.1875 -1.484375 37.003906 -0.894531 36.640625 -0.53125 C 36.285156 -0.175781 35.707031 0 34.90625 0 Z M 34.90625 0 "/></g></g></g><g fill="#00ffff" fill-opacity="1"><g transform="translate(239.979372, 104.029376)"><g><path d="M 16.5625 0 L 6.6875 0 C 5.882812 0 5.300781 -0.175781 4.9375 -0.53125 C 4.570312 -0.894531 4.390625 -1.484375 4.390625 -2.296875 L 4.390625 -43.5625 C 4.390625 -44.363281 4.570312 -44.945312 4.9375 -45.3125 C 5.300781 -45.675781 5.882812 -45.859375 6.6875 -45.859375 L 16.5625 -45.859375 C 17.363281 -45.859375 17.941406 -45.675781 18.296875 -45.3125 C 18.660156 -44.945312 18.84375 -44.363281 18.84375 -43.5625 L 18.84375 -29.734375 L 29.484375 -29.734375 L 29.484375 -43.5625 C 29.484375 -44.363281 29.660156 -44.945312 30.015625 -45.3125 C 30.378906 -45.675781 30.96875 -45.859375 31.78125 -45.859375 L 41.65625 -45.859375 C 42.457031 -45.859375 43.035156 -45.675781 43.390625 -45.3125 C 43.753906 -44.945312 43.9375 -44.363281 43.9375 -43.5625 L 43.9375 -2.296875 C 43.9375 -1.484375 43.753906 -0.894531 43.390625 -0.53125 C 43.035156 -0.175781 42.457031 0 41.65625 0 L 31.78125 0 C 30.96875 0 30.378906 -0.175781 30.015625 -0.53125 C 29.660156 -0.894531 29.484375 -1.484375 29.484375 -2.296875 L 29.484375 -16.4375 L 18.84375 -16.4375 L 18.84375 -2.296875 C 18.84375 -1.484375 18.660156 -0.894531 18.296875 -0.53125 C 17.941406 -0.175781 17.363281 0 16.5625 0 Z M 16.5625 0 "/></g></g></g><g fill="#00ffff" fill-opacity="1"><g transform="translate(288.312301, 104.029376)"><g><path d="M 36.234375 0 L 6.6875 0 C 5.882812 0 5.300781 -0.175781 4.9375 -0.53125 C 4.570312 -0.894531 4.390625 -1.484375 4.390625 -2.296875 L 4.390625 -43.5625 C 4.390625 -44.363281 4.570312 -44.945312 4.9375 -45.3125 C 5.300781 -45.675781 5.882812 -45.859375 6.6875 -45.859375 L 36.234375 -45.859375 C 37.046875 -45.859375 37.628906 -45.675781 37.984375 -45.3125 C 38.347656 -44.945312 38.53125 -44.363281 38.53125 -43.5625 L 38.53125 -36.109375 C 38.53125 -35.304688 38.347656 -34.722656 37.984375 -34.359375 C 37.628906 -33.992188 37.046875 -33.8125 36.234375 -33.8125 L 18.65625 -33.8125 L 18.65625 -28.921875 L 31.078125 -28.921875 C 31.890625 -28.921875 32.472656 -28.738281 32.828125 -28.375 C 33.191406 -28.007812 33.375 -27.425781 33.375 -26.625 L 33.375 -19.8125 C 33.375 -19 33.191406 -18.410156 32.828125 -18.046875 C 32.472656 -17.691406 31.890625 -17.515625 31.078125 -17.515625 L 18.65625 -17.515625 L 18.65625 -12.03125 L 36.234375 -12.03125 C 37.046875 -12.03125 37.628906 -11.847656 37.984375 -11.484375 C 38.347656 -11.128906 38.53125 -10.550781 38.53125 -9.75 L 38.53125 -2.296875 C 38.53125 -1.484375 38.347656 -0.894531 37.984375 -0.53125 C 37.628906 -0.175781 37.046875 0 36.234375 0 Z M 36.234375 0 "/></g></g></g><g fill="#00ffff" fill-opacity="1"><g transform="translate(329.958859, 104.029376)"><g><path d="M 16.5625 0 L 6.6875 0 C 5.882812 0 5.300781 -0.175781 4.9375 -0.53125 C 4.570312 -0.894531 4.390625 -1.484375 4.390625 -2.296875 L 4.390625 -43.5625 C 4.390625 -44.363281 4.570312 -44.945312 4.9375 -45.3125 C 5.300781 -45.675781 5.882812 -45.859375 6.6875 -45.859375 L 35.09375 -45.859375 C 35.894531 -45.859375 36.476562 -45.675781 36.84375 -45.3125 C 37.207031 -44.945312 37.390625 -44.363281 37.390625 -43.5625 L 37.390625 -35.984375 C 37.390625 -35.171875 37.207031 -34.582031 36.84375 -34.21875 C 36.476562 -33.863281 35.894531 -33.6875 35.09375 -33.6875 L 18.84375 -33.6875 L 18.84375 -27.0625 L 29.9375 -27.0625 C 30.738281 -27.0625 31.316406 -26.878906 31.671875 -26.515625 C 32.035156 -26.160156 32.21875 -25.582031 32.21875 -24.78125 L 32.21875 -17.125 C 32.21875 -16.320312 32.035156 -15.738281 31.671875 -15.375 C 31.316406 -15.019531 30.738281 -14.84375 29.9375 -14.84375 L 18.84375 -14.84375 L 18.84375 -2.296875 C 18.84375 -1.484375 18.660156 -0.894531 18.296875 -0.53125 C 17.941406 -0.175781 17.363281 0 16.5625 0 Z M 16.5625 0 "/></g></g></g><g fill="#eda332" fill-opacity="1"><g transform="translate(7.35352, 105.57679)"><g><path d="M 16.5625 0 L 6.6875 0 C 5.882812 0 5.300781 -0.175781 4.9375 -0.53125 C 4.570312 -0.894531 4.390625 -1.484375 4.390625 -2.296875 L 4.390625 -43.5625 C 4.390625 -44.363281 4.570312 -44.945312 4.9375 -45.3125 C 5.300781 -45.675781 5.882812 -45.859375 6.6875 -45.859375 L 16.5625 -45.859375 C 17.363281 -45.859375 17.941406 -45.675781 18.296875 -45.3125 C 18.660156 -44.945312 18.84375 -44.363281 18.84375 -43.5625 L 18.84375 -29.734375 L 29.484375 -29.734375 L 29.484375 -43.5625 C 29.484375 -44.363281 29.660156 -44.945312 30.015625 -45.3125 C 30.378906 -45.675781 30.96875 -45.859375 31.78125 -45.859375 L 41.65625 -45.859375 C 42.457031 -45.859375 43.035156 -45.675781 43.390625 -45.3125 C 43.753906 -44.945312 43.9375 -44.363281 43.9375 -43.5625 L 43.9375 -2.296875 C 43.9375 -1.484375 43.753906 -0.894531 43.390625 -0.53125 C 43.035156 -0.175781 42.457031 0 41.65625 0 L 31.78125 0 C 30.96875 0 30.378906 -0.175781 30.015625 -0.53125 C 29.660156 -0.894531 29.484375 -1.484375 29.484375 -2.296875 L 29.484375 -16.4375 L 18.84375 -16.4375 L 18.84375 -2.296875 C 18.84375 -1.484375 18.660156 -0.894531 18.296875 -0.53125 C 17.941406 -0.175781 17.363281 0 16.5625 0 Z M 16.5625 0 "/></g></g></g><g fill="#eda332" fill-opacity="1"><g transform="translate(55.686448, 105.57679)"><g><path d="M 43.25 -12.03125 C 43.25 -10.082031 42.960938 -8.3125 42.390625 -6.71875 C 41.816406 -5.125 40.796875 -3.765625 39.328125 -2.640625 C 37.859375 -1.515625 35.835938 -0.632812 33.265625 0 C 30.703125 0.632812 27.445312 0.953125 23.5 0.953125 C 19.550781 0.953125 16.28125 0.632812 13.6875 0 C 11.101562 -0.632812 9.078125 -1.515625 7.609375 -2.640625 C 6.140625 -3.765625 5.117188 -5.125 4.546875 -6.71875 C 3.972656 -8.3125 3.6875 -10.082031 3.6875 -12.03125 L 3.6875 -33.75 C 3.6875 -35.707031 3.972656 -37.476562 4.546875 -39.0625 C 5.117188 -40.65625 6.140625 -42.023438 7.609375 -43.171875 C 9.078125 -44.328125 11.101562 -45.222656 13.6875 -45.859375 C 16.28125 -46.492188 19.550781 -46.8125 23.5 -46.8125 C 27.445312 -46.8125 30.703125 -46.492188 33.265625 -45.859375 C 35.835938 -45.222656 37.859375 -44.328125 39.328125 -43.171875 C 40.796875 -42.023438 41.816406 -40.65625 42.390625 -39.0625 C 42.960938 -37.476562 43.25 -35.707031 43.25 -33.75 Z M 18.15625 -14.328125 C 18.15625 -13.484375 18.472656 -12.773438 19.109375 -12.203125 C 19.742188 -11.628906 21.207031 -11.34375 23.5 -11.34375 C 25.789062 -11.34375 27.253906 -11.628906 27.890625 -12.203125 C 28.523438 -12.773438 28.84375 -13.484375 28.84375 -14.328125 L 28.84375 -31.46875 C 28.84375 -32.269531 28.523438 -32.957031 27.890625 -33.53125 C 27.253906 -34.101562 25.789062 -34.390625 23.5 -34.390625 C 21.207031 -34.390625 19.742188 -34.101562 19.109375 -33.53125 C 18.472656 -32.957031 18.15625 -32.269531 18.15625 -31.46875 Z M 18.15625 -14.328125 "/></g></g></g><g fill="#eda332" fill-opacity="1"><g transform="translate(102.618426, 105.57679)"><g><path d="M 16.171875 0 L 6.6875 0 C 5.882812 0 5.300781 -0.175781 4.9375 -0.53125 C 4.570312 -0.894531 4.390625 -1.484375 4.390625 -2.296875 L 4.390625 -43.5625 C 4.390625 -44.363281 4.570312 -44.945312 4.9375 -45.3125 C 5.300781 -45.675781 5.882812 -45.859375 6.6875 -45.859375 L 16.9375 -45.859375 C 17.613281 -45.859375 18.175781 -45.707031 18.625 -45.40625 C 19.070312 -45.113281 19.488281 -44.625 19.875 -43.9375 L 25.609375 -33.5625 C 25.816406 -33.175781 25.992188 -32.898438 26.140625 -32.734375 C 26.285156 -32.566406 26.488281 -32.484375 26.75 -32.484375 L 27.328125 -32.484375 C 27.578125 -32.484375 27.773438 -32.566406 27.921875 -32.734375 C 28.078125 -32.898438 28.257812 -33.175781 28.46875 -33.5625 L 34.140625 -43.9375 C 34.515625 -44.625 34.925781 -45.113281 35.375 -45.40625 C 35.820312 -45.707031 36.382812 -45.859375 37.0625 -45.859375 L 47.390625 -45.859375 C 48.191406 -45.859375 48.769531 -45.675781 49.125 -45.3125 C 49.488281 -44.945312 49.671875 -44.363281 49.671875 -43.5625 L 49.671875 -2.296875 C 49.671875 -1.484375 49.488281 -0.894531 49.125 -0.53125 C 48.769531 -0.175781 48.191406 0 47.390625 0 L 37.578125 0 C 36.765625 0 36.175781 -0.175781 35.8125 -0.53125 C 35.457031 -0.894531 35.28125 -1.484375 35.28125 -2.296875 L 35.28125 -24.703125 L 31.53125 -17.765625 C 31.144531 -17.046875 30.6875 -16.523438 30.15625 -16.203125 C 29.625 -15.890625 28.957031 -15.734375 28.15625 -15.734375 L 25.609375 -15.734375 C 24.796875 -15.734375 24.125 -15.890625 23.59375 -16.203125 C 23.0625 -16.523438 22.609375 -17.046875 22.234375 -17.765625 L 18.46875 -24.703125 L 18.46875 -2.296875 C 18.46875 -1.484375 18.285156 -0.894531 17.921875 -0.53125 C 17.566406 -0.175781 16.984375 0 16.171875 0 Z M 16.171875 0 "/></g></g></g><g fill="#eda332" fill-opacity="1"><g transform="translate(156.682532, 105.57679)"><g><path d="M 36.234375 0 L 6.6875 0 C 5.882812 0 5.300781 -0.175781 4.9375 -0.53125 C 4.570312 -0.894531 4.390625 -1.484375 4.390625 -2.296875 L 4.390625 -43.5625 C 4.390625 -44.363281 4.570312 -44.945312 4.9375 -45.3125 C 5.300781 -45.675781 5.882812 -45.859375 6.6875 -45.859375 L 36.234375 -45.859375 C 37.046875 -45.859375 37.628906 -45.675781 37.984375 -45.3125 C 38.347656 -44.945312 38.53125 -44.363281 38.53125 -43.5625 L 38.53125 -36.109375 C 38.53125 -35.304688 38.347656 -34.722656 37.984375 -34.359375 C 37.628906 -33.992188 37.046875 -33.8125 36.234375 -33.8125 L 18.65625 -33.8125 L 18.65625 -28.921875 L 31.078125 -28.921875 C 31.890625 -28.921875 32.472656 -28.738281 32.828125 -28.375 C 33.191406 -28.007812 33.375 -27.425781 33.375 -26.625 L 33.375 -19.8125 C 33.375 -19 33.191406 -18.410156 32.828125 -18.046875 C 32.472656 -17.691406 31.890625 -17.515625 31.078125 -17.515625 L 18.65625 -17.515625 L 18.65625 -12.03125 L 36.234375 -12.03125 C 37.046875 -12.03125 37.628906 -11.847656 37.984375 -11.484375 C 38.347656 -11.128906 38.53125 -10.550781 38.53125 -9.75 L 38.53125 -2.296875 C 38.53125 -1.484375 38.347656 -0.894531 37.984375 -0.53125 C 37.628906 -0.175781 37.046875 0 36.234375 0 Z M 36.234375 0 "/></g></g></g><g fill="#eda332" fill-opacity="1"><g transform="translate(198.32909, 105.57679)"><g><path d="M 34.90625 0 L 19.359375 0 C 14.054688 0 10.117188 -1.0625 7.546875 -3.1875 C 4.972656 -5.3125 3.6875 -8.582031 3.6875 -13 L 3.6875 -32.796875 C 3.6875 -37.210938 4.972656 -40.492188 7.546875 -42.640625 C 10.117188 -44.785156 14.054688 -45.859375 19.359375 -45.859375 L 34.90625 -45.859375 C 35.707031 -45.859375 36.285156 -45.675781 36.640625 -45.3125 C 37.003906 -44.945312 37.1875 -44.363281 37.1875 -43.5625 L 37.1875 -35.859375 C 37.1875 -35.046875 37.003906 -34.457031 36.640625 -34.09375 C 36.285156 -33.738281 35.707031 -33.5625 34.90625 -33.5625 L 22.09375 -33.5625 C 20.78125 -33.5625 19.804688 -33.296875 19.171875 -32.765625 C 18.535156 -32.234375 18.21875 -31.4375 18.21875 -30.375 L 18.21875 -15.21875 C 18.21875 -14.15625 18.535156 -13.378906 19.171875 -12.890625 C 19.804688 -12.410156 20.78125 -12.171875 22.09375 -12.171875 L 34.90625 -12.171875 C 35.707031 -12.171875 36.285156 -11.988281 36.640625 -11.625 C 37.003906 -11.257812 37.1875 -10.675781 37.1875 -9.875 L 37.1875 -2.296875 C 37.1875 -1.484375 37.003906 -0.894531 36.640625 -0.53125 C 36.285156 -0.175781 35.707031 0 34.90625 0 Z M 34.90625 0 "/></g></g></g><g fill="#eda332" fill-opacity="1"><g transform="translate(238.319974, 105.57679)"><g><path d="M 16.5625 0 L 6.6875 0 C 5.882812 0 5.300781 -0.175781 4.9375 -0.53125 C 4.570312 -0.894531 4.390625 -1.484375 4.390625 -2.296875 L 4.390625 -43.5625 C 4.390625 -44.363281 4.570312 -44.945312 4.9375 -45.3125 C 5.300781 -45.675781 5.882812 -45.859375 6.6875 -45.859375 L 16.5625 -45.859375 C 17.363281 -45.859375 17.941406 -45.675781 18.296875 -45.3125 C 18.660156 -44.945312 18.84375 -44.363281 18.84375 -43.5625 L 18.84375 -29.734375 L 29.484375 -29.734375 L 29.484375 -43.5625 C 29.484375 -44.363281 29.660156 -44.945312 30.015625 -45.3125 C 30.378906 -45.675781 30.96875 -45.859375 31.78125 -45.859375 L 41.65625 -45.859375 C 42.457031 -45.859375 43.035156 -45.675781 43.390625 -45.3125 C 43.753906 -44.945312 43.9375 -44.363281 43.9375 -43.5625 L 43.9375 -2.296875 C 43.9375 -1.484375 43.753906 -0.894531 43.390625 -0.53125 C 43.035156 -0.175781 42.457031 0 41.65625 0 L 31.78125 0 C 30.96875 0 30.378906 -0.175781 30.015625 -0.53125 C 29.660156 -0.894531 29.484375 -1.484375 29.484375 -2.296875 L 29.484375 -16.4375 L 18.84375 -16.4375 L 18.84375 -2.296875 C 18.84375 -1.484375 18.660156 -0.894531 18.296875 -0.53125 C 17.941406 -0.175781 17.363281 0 16.5625 0 Z M 16.5625 0 "/></g></g></g><g fill="#eda332" fill-opacity="1"><g transform="translate(286.652903, 105.57679)"><g><path d="M 36.234375 0 L 6.6875 0 C 5.882812 0 5.300781 -0.175781 4.9375 -0.53125 C 4.570312 -0.894531 4.390625 -1.484375 4.390625 -2.296875 L 4.390625 -43.5625 C 4.390625 -44.363281 4.570312 -44.945312 4.9375 -45.3125 C 5.300781 -45.675781 5.882812 -45.859375 6.6875 -45.859375 L 36.234375 -45.859375 C 37.046875 -45.859375 37.628906 -45.675781 37.984375 -45.3125 C 38.347656 -44.945312 38.53125 -44.363281 38.53125 -43.5625 L 38.53125 -36.109375 C 38.53125 -35.304688 38.347656 -34.722656 37.984375 -34.359375 C 37.628906 -33.992188 37.046875 -33.8125 36.234375 -33.8125 L 18.65625 -33.8125 L 18.65625 -28.921875 L 31.078125 -28.921875 C 31.890625 -28.921875 32.472656 -28.738281 32.828125 -28.375 C 33.191406 -28.007812 33.375 -27.425781 33.375 -26.625 L 33.375 -19.8125 C 33.375 -19 33.191406 -18.410156 32.828125 -18.046875 C 32.472656 -17.691406 31.890625 -17.515625 31.078125 -17.515625 L 18.65625 -17.515625 L 18.65625 -12.03125 L 36.234375 -12.03125 C 37.046875 -12.03125 37.628906 -11.847656 37.984375 -11.484375 C 38.347656 -11.128906 38.53125 -10.550781 38.53125 -9.75 L 38.53125 -2.296875 C 38.53125 -1.484375 38.347656 -0.894531 37.984375 -0.53125 C 37.628906 -0.175781 37.046875 0 36.234375 0 Z M 36.234375 0 "/></g></g></g><g fill="#eda332" fill-opacity="1"><g transform="translate(328.299461, 105.57679)"><g><path d="M 16.5625 0 L 6.6875 0 C 5.882812 0 5.300781 -0.175781 4.9375 -0.53125 C 4.570312 -0.894531 4.390625 -1.484375 4.390625 -2.296875 L 4.390625 -43.5625 C 4.390625 -44.363281 4.570312 -44.945312 4.9375 -45.3125 C 5.300781 -45.675781 5.882812 -45.859375 6.6875 -45.859375 L 35.09375 -45.859375 C 35.894531 -45.859375 36.476562 -45.675781 36.84375 -45.3125 C 37.207031 -44.945312 37.390625 -44.363281 37.390625 -43.5625 L 37.390625 -35.984375 C 37.390625 -35.171875 37.207031 -34.582031 36.84375 -34.21875 C 36.476562 -33.863281 35.894531 -33.6875 35.09375 -33.6875 L 18.84375 -33.6875 L 18.84375 -27.0625 L 29.9375 -27.0625 C 30.738281 -27.0625 31.316406 -26.878906 31.671875 -26.515625 C 32.035156 -26.160156 32.21875 -25.582031 32.21875 -24.78125 L 32.21875 -17.125 C 32.21875 -16.320312 32.035156 -15.738281 31.671875 -15.375 C 31.316406 -15.019531 30.738281 -14.84375 29.9375 -14.84375 L 18.84375 -14.84375 L 18.84375 -2.296875 C 18.84375 -1.484375 18.660156 -0.894531 18.296875 -0.53125 C 17.941406 -0.175781 17.363281 0 16.5625 0 Z M 16.5625 0 "/></g></g></g></svg>