<svg xmlns="http://www.w3.org/2000/svg" xmlns:xlink="http://www.w3.org/1999/xlink" width="500" zoomAndPan="magnify" viewBox="0 0 375 374.999991" height="500" preserveAspectRatio="xMidYMid meet" version="1.0"><defs><g/></defs><rect x="-37.5" width="450" fill="#ffffff" y="-37.499999" height="449.999989" fill-opacity="1"/><rect x="-37.5" width="450" fill="#ffffff" y="-37.499999" height="449.999989" fill-opacity="1"/><g fill="#eda332" fill-opacity="1"><g transform="translate(54.550782, 183.818542)"><g><path d="M 39.640625 -41.234375 L 39.640625 0 L 31.0625 0 L 31.0625 -17.765625 L 12.90625 -17.765625 L 12.90625 0 L 4.3125 0 L 4.3125 -41.234375 L 12.90625 -41.234375 L 12.90625 -23.71875 L 31.0625 -23.71875 L 31.0625 -41.234375 Z M 39.640625 -41.234375 "/></g></g></g><g fill="#eda332" fill-opacity="1"><g transform="translate(98.504309, 183.818542)"><g><path d="M 16.453125 -29.75 C 18.648438 -29.75 20.644531 -29.394531 22.4375 -28.6875 C 24.238281 -27.988281 25.785156 -26.988281 27.078125 -25.6875 C 28.367188 -24.394531 29.363281 -22.820312 30.0625 -20.96875 C 30.757812 -19.113281 31.109375 -17.019531 31.109375 -14.6875 C 31.109375 -12.351562 30.757812 -10.253906 30.0625 -8.390625 C 29.363281 -6.523438 28.367188 -4.9375 27.078125 -3.625 C 25.785156 -2.320312 24.238281 -1.320312 22.4375 -0.625 C 20.644531 0.0703125 18.648438 0.421875 16.453125 0.421875 C 14.234375 0.421875 12.21875 0.0703125 10.40625 -0.625 C 8.601562 -1.320312 7.054688 -2.320312 5.765625 -3.625 C 4.472656 -4.9375 3.472656 -6.523438 2.765625 -8.390625 C 2.054688 -10.253906 1.703125 -12.351562 1.703125 -14.6875 C 1.703125 -17.019531 2.054688 -19.113281 2.765625 -20.96875 C 3.472656 -22.820312 4.472656 -24.394531 5.765625 -25.6875 C 7.054688 -26.988281 8.601562 -27.988281 10.40625 -28.6875 C 12.21875 -29.394531 14.234375 -29.75 16.453125 -29.75 Z M 16.453125 -5.453125 C 18.679688 -5.453125 20.335938 -6.222656 21.421875 -7.765625 C 22.503906 -9.316406 23.046875 -11.613281 23.046875 -14.65625 C 23.046875 -17.6875 22.503906 -19.972656 21.421875 -21.515625 C 20.335938 -23.066406 18.679688 -23.84375 16.453125 -23.84375 C 14.160156 -23.84375 12.472656 -23.066406 11.390625 -21.515625 C 10.316406 -19.972656 9.78125 -17.6875 9.78125 -14.65625 C 9.78125 -11.613281 10.316406 -9.316406 11.390625 -7.765625 C 12.472656 -6.222656 14.160156 -5.453125 16.453125 -5.453125 Z M 16.453125 -5.453125 "/></g></g></g><g fill="#eda332" fill-opacity="1"><g transform="translate(131.320286, 183.818542)"><g><path d="M 3.234375 0 L 3.234375 -29.296875 L 8.0625 -29.296875 C 9.050781 -29.296875 9.707031 -28.84375 10.03125 -27.9375 L 10.484375 -26.03125 C 10.992188 -26.5625 11.519531 -27.050781 12.0625 -27.5 C 12.601562 -27.957031 13.1875 -28.351562 13.8125 -28.6875 C 14.4375 -29.019531 15.113281 -29.28125 15.84375 -29.46875 C 16.570312 -29.65625 17.363281 -29.75 18.21875 -29.75 C 20.007812 -29.75 21.492188 -29.269531 22.671875 -28.3125 C 23.847656 -27.351562 24.738281 -26.082031 25.34375 -24.5 C 25.820312 -25.425781 26.40625 -26.222656 27.09375 -26.890625 C 27.78125 -27.566406 28.535156 -28.113281 29.359375 -28.53125 C 30.191406 -28.945312 31.066406 -29.253906 31.984375 -29.453125 C 32.898438 -29.648438 33.820312 -29.75 34.75 -29.75 C 36.394531 -29.75 37.851562 -29.5 39.125 -29 C 40.394531 -28.507812 41.457031 -27.785156 42.3125 -26.828125 C 43.175781 -25.878906 43.835938 -24.710938 44.296875 -23.328125 C 44.753906 -21.941406 44.984375 -20.367188 44.984375 -18.609375 L 44.984375 0 L 37.140625 0 L 37.140625 -18.609375 C 37.140625 -22.035156 35.671875 -23.75 32.734375 -23.75 C 32.066406 -23.75 31.453125 -23.640625 30.890625 -23.421875 C 30.335938 -23.203125 29.847656 -22.875 29.421875 -22.4375 C 28.992188 -22.007812 28.660156 -21.472656 28.421875 -20.828125 C 28.191406 -20.179688 28.078125 -19.441406 28.078125 -18.609375 L 28.078125 0 L 20.234375 0 L 20.234375 -18.609375 C 20.234375 -20.460938 19.867188 -21.78125 19.140625 -22.5625 C 18.410156 -23.351562 17.332031 -23.75 15.90625 -23.75 C 15 -23.75 14.140625 -23.535156 13.328125 -23.109375 C 12.523438 -22.679688 11.773438 -22.09375 11.078125 -21.34375 L 11.078125 0 Z M 3.234375 0 "/></g></g></g><g fill="#eda332" fill-opacity="1"><g transform="translate(179.251504, 183.818542)"><g><path d="M 21.828125 -18.09375 C 21.828125 -18.914062 21.71875 -19.691406 21.5 -20.421875 C 21.28125 -21.160156 20.929688 -21.816406 20.453125 -22.390625 C 19.984375 -22.960938 19.390625 -23.410156 18.671875 -23.734375 C 17.953125 -24.066406 17.085938 -24.234375 16.078125 -24.234375 C 14.203125 -24.234375 12.734375 -23.703125 11.671875 -22.640625 C 10.617188 -21.585938 9.929688 -20.070312 9.609375 -18.09375 Z M 9.484375 -13.4375 C 9.734375 -10.6875 10.515625 -8.675781 11.828125 -7.40625 C 13.148438 -6.144531 14.867188 -5.515625 16.984375 -5.515625 C 18.066406 -5.515625 19 -5.640625 19.78125 -5.890625 C 20.570312 -6.148438 21.265625 -6.4375 21.859375 -6.75 C 22.460938 -7.0625 23.003906 -7.34375 23.484375 -7.59375 C 23.960938 -7.851562 24.441406 -7.984375 24.921875 -7.984375 C 25.523438 -7.984375 26 -7.753906 26.34375 -7.296875 L 28.609375 -4.46875 C 27.773438 -3.5 26.851562 -2.695312 25.84375 -2.0625 C 24.84375 -1.425781 23.800781 -0.921875 22.71875 -0.546875 C 21.644531 -0.179688 20.554688 0.0664062 19.453125 0.203125 C 18.359375 0.347656 17.300781 0.421875 16.28125 0.421875 C 14.238281 0.421875 12.332031 0.0859375 10.5625 -0.578125 C 8.789062 -1.253906 7.242188 -2.25 5.921875 -3.5625 C 4.609375 -4.882812 3.570312 -6.519531 2.8125 -8.46875 C 2.050781 -10.414062 1.671875 -12.679688 1.671875 -15.265625 C 1.671875 -17.242188 2 -19.113281 2.65625 -20.875 C 3.3125 -22.644531 4.253906 -24.179688 5.484375 -25.484375 C 6.710938 -26.796875 8.207031 -27.832031 9.96875 -28.59375 C 11.726562 -29.363281 13.71875 -29.75 15.9375 -29.75 C 17.8125 -29.75 19.539062 -29.445312 21.125 -28.84375 C 22.707031 -28.25 24.070312 -27.382812 25.21875 -26.25 C 26.363281 -25.113281 27.253906 -23.71875 27.890625 -22.0625 C 28.523438 -20.40625 28.84375 -18.515625 28.84375 -16.390625 C 28.84375 -15.804688 28.8125 -15.320312 28.75 -14.9375 C 28.695312 -14.5625 28.601562 -14.257812 28.46875 -14.03125 C 28.332031 -13.8125 28.148438 -13.65625 27.921875 -13.5625 C 27.703125 -13.476562 27.410156 -13.4375 27.046875 -13.4375 Z M 9.484375 -13.4375 "/></g></g></g><g fill="#eda332" fill-opacity="1"><g transform="translate(209.709277, 183.818542)"><g><path d="M 24.5 -22.765625 C 24.269531 -22.460938 24.039062 -22.226562 23.8125 -22.0625 C 23.582031 -21.90625 23.257812 -21.828125 22.84375 -21.828125 C 22.46875 -21.828125 22.101562 -21.929688 21.75 -22.140625 C 21.394531 -22.359375 20.988281 -22.597656 20.53125 -22.859375 C 20.082031 -23.117188 19.546875 -23.351562 18.921875 -23.5625 C 18.296875 -23.78125 17.519531 -23.890625 16.59375 -23.890625 C 15.414062 -23.890625 14.394531 -23.675781 13.53125 -23.25 C 12.675781 -22.832031 11.960938 -22.222656 11.390625 -21.421875 C 10.828125 -20.628906 10.40625 -19.664062 10.125 -18.53125 C 9.851562 -17.394531 9.71875 -16.113281 9.71875 -14.6875 C 9.71875 -11.695312 10.316406 -9.40625 11.515625 -7.8125 C 12.722656 -6.21875 14.367188 -5.421875 16.453125 -5.421875 C 17.171875 -5.421875 17.789062 -5.484375 18.3125 -5.609375 C 18.832031 -5.734375 19.285156 -5.890625 19.671875 -6.078125 C 20.066406 -6.265625 20.40625 -6.472656 20.6875 -6.703125 C 20.96875 -6.929688 21.234375 -7.140625 21.484375 -7.328125 C 21.742188 -7.515625 22 -7.671875 22.25 -7.796875 C 22.507812 -7.921875 22.800781 -7.984375 23.125 -7.984375 C 23.726562 -7.984375 24.203125 -7.753906 24.546875 -7.296875 L 26.796875 -4.46875 C 25.960938 -3.5 25.070312 -2.695312 24.125 -2.0625 C 23.175781 -1.425781 22.191406 -0.921875 21.171875 -0.546875 C 20.160156 -0.179688 19.132812 0.0664062 18.09375 0.203125 C 17.050781 0.347656 16.019531 0.421875 15 0.421875 C 13.195312 0.421875 11.488281 0.0859375 9.875 -0.578125 C 8.269531 -1.253906 6.859375 -2.234375 5.640625 -3.515625 C 4.429688 -4.804688 3.472656 -6.390625 2.765625 -8.265625 C 2.054688 -10.140625 1.703125 -12.28125 1.703125 -14.6875 C 1.703125 -16.832031 2.015625 -18.820312 2.640625 -20.65625 C 3.265625 -22.488281 4.179688 -24.078125 5.390625 -25.421875 C 6.609375 -26.773438 8.113281 -27.832031 9.90625 -28.59375 C 11.695312 -29.363281 13.765625 -29.75 16.109375 -29.75 C 18.347656 -29.75 20.304688 -29.390625 21.984375 -28.671875 C 23.671875 -27.953125 25.1875 -26.910156 26.53125 -25.546875 Z M 24.5 -22.765625 "/></g></g></g><g fill="#eda332" fill-opacity="1"><g transform="translate(237.212198, 183.818542)"><g><path d="M 11.078125 -26.421875 C 11.628906 -26.910156 12.203125 -27.359375 12.796875 -27.765625 C 13.398438 -28.179688 14.035156 -28.535156 14.703125 -28.828125 C 15.378906 -29.117188 16.097656 -29.34375 16.859375 -29.5 C 17.628906 -29.664062 18.457031 -29.75 19.34375 -29.75 C 20.9375 -29.75 22.347656 -29.472656 23.578125 -28.921875 C 24.816406 -28.367188 25.851562 -27.597656 26.6875 -26.609375 C 27.53125 -25.628906 28.164062 -24.457031 28.59375 -23.09375 C 29.019531 -21.738281 29.234375 -20.242188 29.234375 -18.609375 L 29.234375 0 L 21.421875 0 L 21.421875 -18.609375 C 21.421875 -20.242188 21.039062 -21.507812 20.28125 -22.40625 C 19.53125 -23.300781 18.414062 -23.75 16.9375 -23.75 C 15.832031 -23.75 14.796875 -23.507812 13.828125 -23.03125 C 12.867188 -22.5625 11.953125 -21.90625 11.078125 -21.0625 L 11.078125 0 L 3.234375 0 L 3.234375 -42.359375 L 11.078125 -42.359375 Z M 11.078125 -26.421875 "/></g></g></g><g fill="#eda332" fill-opacity="1"><g transform="translate(269.431537, 183.818542)"><g><path d="M 21.828125 -18.09375 C 21.828125 -18.914062 21.71875 -19.691406 21.5 -20.421875 C 21.28125 -21.160156 20.929688 -21.816406 20.453125 -22.390625 C 19.984375 -22.960938 19.390625 -23.410156 18.671875 -23.734375 C 17.953125 -24.066406 17.085938 -24.234375 16.078125 -24.234375 C 14.203125 -24.234375 12.734375 -23.703125 11.671875 -22.640625 C 10.617188 -21.585938 9.929688 -20.070312 9.609375 -18.09375 Z M 9.484375 -13.4375 C 9.734375 -10.6875 10.515625 -8.675781 11.828125 -7.40625 C 13.148438 -6.144531 14.867188 -5.515625 16.984375 -5.515625 C 18.066406 -5.515625 19 -5.640625 19.78125 -5.890625 C 20.570312 -6.148438 21.265625 -6.4375 21.859375 -6.75 C 22.460938 -7.0625 23.003906 -7.34375 23.484375 -7.59375 C 23.960938 -7.851562 24.441406 -7.984375 24.921875 -7.984375 C 25.523438 -7.984375 26 -7.753906 26.34375 -7.296875 L 28.609375 -4.46875 C 27.773438 -3.5 26.851562 -2.695312 25.84375 -2.0625 C 24.84375 -1.425781 23.800781 -0.921875 22.71875 -0.546875 C 21.644531 -0.179688 20.554688 0.0664062 19.453125 0.203125 C 18.359375 0.347656 17.300781 0.421875 16.28125 0.421875 C 14.238281 0.421875 12.332031 0.0859375 10.5625 -0.578125 C 8.789062 -1.253906 7.242188 -2.25 5.921875 -3.5625 C 4.609375 -4.882812 3.570312 -6.519531 2.8125 -8.46875 C 2.050781 -10.414062 1.671875 -12.679688 1.671875 -15.265625 C 1.671875 -17.242188 2 -19.113281 2.65625 -20.875 C 3.3125 -22.644531 4.253906 -24.179688 5.484375 -25.484375 C 6.710938 -26.796875 8.207031 -27.832031 9.96875 -28.59375 C 11.726562 -29.363281 13.71875 -29.75 15.9375 -29.75 C 17.8125 -29.75 19.539062 -29.445312 21.125 -28.84375 C 22.707031 -28.25 24.070312 -27.382812 25.21875 -26.25 C 26.363281 -25.113281 27.253906 -23.71875 27.890625 -22.0625 C 28.523438 -20.40625 28.84375 -18.515625 28.84375 -16.390625 C 28.84375 -15.804688 28.8125 -15.320312 28.75 -14.9375 C 28.695312 -14.5625 28.601562 -14.257812 28.46875 -14.03125 C 28.332031 -13.8125 28.148438 -13.65625 27.921875 -13.5625 C 27.703125 -13.476562 27.410156 -13.4375 27.046875 -13.4375 Z M 9.484375 -13.4375 "/></g></g></g><g fill="#eda332" fill-opacity="1"><g transform="translate(299.889299, 183.818542)"><g><path d="M 5.375 0 L 5.375 -23.671875 L 3.09375 -24.0625 C 2.507812 -24.175781 2.03125 -24.382812 1.65625 -24.6875 C 1.289062 -24.988281 1.109375 -25.425781 1.109375 -26 L 1.109375 -29.125 L 5.375 -29.125 L 5.375 -31.0625 C 5.375 -32.726562 5.632812 -34.238281 6.15625 -35.59375 C 6.675781 -36.945312 7.414062 -38.09375 8.375 -39.03125 C 9.34375 -39.96875 10.523438 -40.691406 11.921875 -41.203125 C 13.328125 -41.710938 14.910156 -41.96875 16.671875 -41.96875 C 17.359375 -41.96875 18.007812 -41.925781 18.625 -41.84375 C 19.238281 -41.757812 19.859375 -41.628906 20.484375 -41.453125 L 20.3125 -37.59375 C 20.28125 -37 20.03125 -36.613281 19.5625 -36.4375 C 19.09375 -36.257812 18.578125 -36.171875 18.015625 -36.171875 C 17.222656 -36.171875 16.507812 -36.082031 15.875 -35.90625 C 15.238281 -35.738281 14.703125 -35.453125 14.265625 -35.046875 C 13.828125 -34.640625 13.492188 -34.085938 13.265625 -33.390625 C 13.035156 -32.703125 12.921875 -31.847656 12.921875 -30.828125 L 12.921875 -29.125 L 20.203125 -29.125 L 20.203125 -23.671875 L 13.1875 -23.671875 L 13.1875 0 Z M 5.375 0 "/></g></g></g></svg>